<?xml version="1.0" encoding="utf-8" standalone="no"?>
<!DOCTYPE svg PUBLIC "-//W3C//DTD SVG 1.1//EN"
  "http://www.w3.org/Graphics/SVG/1.1/DTD/svg11.dtd">
<svg xmlns:xlink="http://www.w3.org/1999/xlink" width="460.8pt" height="345.6pt" viewBox="0 0 460.8 345.6" xmlns="http://www.w3.org/2000/svg" version="1.1">
 <metadata>
  <rdf:RDF xmlns:dc="http://purl.org/dc/elements/1.1/" xmlns:cc="http://creativecommons.org/ns#" xmlns:rdf="http://www.w3.org/1999/02/22-rdf-syntax-ns#">
   <cc:Work>
    <dc:type rdf:resource="http://purl.org/dc/dcmitype/StillImage"/>
    <dc:date>2023-09-04T13:27:07.303946</dc:date>
    <dc:format>image/svg+xml</dc:format>
    <dc:creator>
     <cc:Agent>
      <dc:title>Matplotlib v3.7.1, https://matplotlib.org/</dc:title>
     </cc:Agent>
    </dc:creator>
   </cc:Work>
  </rdf:RDF>
 </metadata>
 <defs>
  <style type="text/css">*{stroke-linejoin: round; stroke-linecap: butt}</style>
 </defs>
 <g id="figure_1">
  <g id="patch_1">
   <path d="M 0 345.6 
L 460.8 345.6 
L 460.8 0 
L 0 0 
z
" style="fill: #ffffff"/>
  </g>
  <g id="axes_1">
   <g id="patch_2">
    <path d="M 58.278745 76.810841 
L 225.891546 76.810841 
L 225.891546 13.002895 
L 58.278745 13.002895 
z
" style="fill: #ffffff"/>
   </g>
   <g id="matplotlib.axis_1">
    <g id="xtick_1">
     <g id="line2d_1">
      <defs>
       <path id="m0365602c01" d="M 0 0 
L 0 3.5 
" style="stroke: #000000; stroke-width: 0.8"/>
      </defs>
      <g>
       <use xlink:href="#m0365602c01" x="65.897509" y="76.810841" style="stroke: #000000; stroke-width: 0.8"/>
      </g>
     </g>
    </g>
    <g id="xtick_2">
     <g id="line2d_2">
      <g>
       <use xlink:href="#m0365602c01" x="116.689267" y="76.810841" style="stroke: #000000; stroke-width: 0.8"/>
      </g>
     </g>
    </g>
    <g id="xtick_3">
     <g id="line2d_3">
      <g>
       <use xlink:href="#m0365602c01" x="167.481024" y="76.810841" style="stroke: #000000; stroke-width: 0.8"/>
      </g>
     </g>
    </g>
    <g id="xtick_4">
     <g id="line2d_4">
      <g>
       <use xlink:href="#m0365602c01" x="218.272782" y="76.810841" style="stroke: #000000; stroke-width: 0.8"/>
      </g>
     </g>
    </g>
   </g>
   <g id="matplotlib.axis_2">
    <g id="ytick_1">
     <g id="line2d_5">
      <defs>
       <path id="m2e26bde07a" d="M 0 0 
L -3.5 0 
" style="stroke: #000000; stroke-width: 0.8"/>
      </defs>
      <g>
       <use xlink:href="#m2e26bde07a" x="58.278745" y="63.729909" style="stroke: #000000; stroke-width: 0.8"/>
      </g>
     </g>
     <g id="text_1">
      <!-- $\mathdefault{−2.5}$ -->
      <g transform="translate(30.799922 67.189158) scale(0.1 -0.1)">
       <defs>
        <path id="CMSY10-0" d="M 4218 1472 
C 4326 1472 4442 1472 4442 1600 
C 4442 1728 4326 1728 4218 1728 
L 755 1728 
C 646 1728 531 1728 531 1600 
C 531 1472 646 1472 755 1472 
L 4218 1472 
z
" transform="scale(0.015625)"/>
        <path id="CMR17-32" d="M 2669 989 
L 2554 989 
C 2490 536 2438 459 2413 420 
C 2381 369 1920 369 1830 369 
L 602 369 
C 832 619 1280 1072 1824 1597 
C 2214 1967 2669 2402 2669 3035 
C 2669 3790 2067 4224 1395 4224 
C 691 4224 262 3604 262 3030 
C 262 2780 448 2748 525 2748 
C 589 2748 781 2787 781 3010 
C 781 3207 614 3264 525 3264 
C 486 3264 448 3258 422 3245 
C 544 3790 915 4058 1306 4058 
C 1862 4058 2227 3617 2227 3035 
C 2227 2479 1901 2000 1536 1584 
L 262 146 
L 262 0 
L 2515 0 
L 2669 989 
z
" transform="scale(0.015625)"/>
        <path id="CMMI12-3a" d="M 1178 307 
C 1178 492 1024 619 870 619 
C 685 619 557 466 557 313 
C 557 128 710 0 864 0 
C 1050 0 1178 153 1178 307 
z
" transform="scale(0.015625)"/>
        <path id="CMR17-35" d="M 730 3692 
C 794 3666 1056 3584 1325 3584 
C 1920 3584 2246 3911 2432 4100 
C 2432 4157 2432 4192 2394 4192 
C 2387 4192 2374 4192 2323 4163 
C 2099 4058 1837 3973 1517 3973 
C 1325 3973 1037 3999 723 4139 
C 653 4171 640 4171 634 4171 
C 602 4171 595 4164 595 4037 
L 595 2203 
C 595 2089 595 2057 659 2057 
C 691 2057 704 2070 736 2114 
C 941 2401 1222 2522 1542 2522 
C 1766 2522 2246 2382 2246 1289 
C 2246 1085 2246 715 2054 421 
C 1894 159 1645 25 1370 25 
C 947 25 518 320 403 814 
C 429 807 480 795 506 795 
C 589 795 749 840 749 1038 
C 749 1210 627 1280 506 1280 
C 358 1280 262 1190 262 1011 
C 262 454 704 -128 1382 -128 
C 2042 -128 2669 440 2669 1264 
C 2669 2030 2170 2624 1549 2624 
C 1222 2624 947 2503 730 2274 
L 730 3692 
z
" transform="scale(0.015625)"/>
       </defs>
       <use xlink:href="#CMSY10-0" transform="scale(0.996264)"/>
       <use xlink:href="#CMR17-32" transform="translate(77.487468 0) scale(0.996264)"/>
       <use xlink:href="#CMMI12-3a" transform="translate(123.177945 0) scale(0.996264)"/>
       <use xlink:href="#CMR17-35" transform="translate(150.275122 0) scale(0.996264)"/>
      </g>
     </g>
    </g>
    <g id="ytick_2">
     <g id="line2d_6">
      <g>
       <use xlink:href="#m2e26bde07a" x="58.278745" y="42.972088" style="stroke: #000000; stroke-width: 0.8"/>
      </g>
     </g>
     <g id="text_2">
      <!-- $\mathdefault{0.0}$ -->
      <g transform="translate(38.548666 46.431337) scale(0.1 -0.1)">
       <defs>
        <path id="CMR17-30" d="M 2688 2025 
C 2688 2416 2682 3080 2413 3591 
C 2176 4039 1798 4198 1466 4198 
C 1158 4198 768 4058 525 3597 
C 269 3118 243 2524 243 2025 
C 243 1661 250 1106 448 619 
C 723 -39 1216 -128 1466 -128 
C 1760 -128 2208 -7 2470 600 
C 2662 1042 2688 1559 2688 2025 
z
M 1466 -26 
C 1056 -26 813 325 723 812 
C 653 1188 653 1738 653 2096 
C 653 2588 653 2997 736 3387 
C 858 3929 1216 4096 1466 4096 
C 1728 4096 2067 3923 2189 3400 
C 2272 3036 2278 2607 2278 2096 
C 2278 1680 2278 1169 2202 792 
C 2067 95 1690 -26 1466 -26 
z
" transform="scale(0.015625)"/>
       </defs>
       <use xlink:href="#CMR17-30" transform="scale(0.996264)"/>
       <use xlink:href="#CMMI12-3a" transform="translate(45.690477 0) scale(0.996264)"/>
       <use xlink:href="#CMR17-30" transform="translate(72.787654 0) scale(0.996264)"/>
      </g>
     </g>
    </g>
    <g id="ytick_3">
     <g id="line2d_7">
      <g>
       <use xlink:href="#m2e26bde07a" x="58.278745" y="22.214267" style="stroke: #000000; stroke-width: 0.8"/>
      </g>
     </g>
     <g id="text_3">
      <!-- $\mathdefault{2.5}$ -->
      <g transform="translate(38.548666 25.673516) scale(0.1 -0.1)">
       <use xlink:href="#CMR17-32" transform="scale(0.996264)"/>
       <use xlink:href="#CMMI12-3a" transform="translate(45.690477 0) scale(0.996264)"/>
       <use xlink:href="#CMR17-35" transform="translate(72.787654 0) scale(0.996264)"/>
      </g>
     </g>
    </g>
    <g id="text_4">
     <!-- $\underline{\Delta \phi}_{3}, \overline{\Delta \phi}_{3}$ -->
     <g transform="translate(22.372206 65.579384) rotate(-90) scale(0.1 -0.1)">
      <defs>
       <path id="CMR17-1" d="M 2598 4403 
C 2547 4512 2522 4512 2470 4512 
C 2394 4512 2387 4499 2342 4409 
L 269 109 
C 262 96 237 38 237 32 
C 237 6 243 0 358 0 
L 4576 0 
C 4691 0 4698 6 4698 32 
C 4698 38 4672 96 4666 109 
L 2598 4403 
z
M 2310 4038 
L 4083 358 
L 531 358 
L 2310 4038 
z
" transform="scale(0.015625)"/>
       <path id="CMMI12-1e" d="M 2752 4390 
C 2752 4448 2707 4448 2688 4448 
C 2630 4448 2624 4435 2598 4326 
L 2253 2939 
C 2234 2856 2227 2849 2221 2843 
C 2214 2830 2170 2824 2157 2824 
C 1107 2734 301 1864 301 1057 
C 301 361 832 -64 1498 -64 
C 1446 -261 1402 -463 1350 -659 
C 1261 -995 1210 -1204 1210 -1229 
C 1210 -1241 1210 -1280 1274 -1280 
C 1293 -1280 1318 -1280 1331 -1254 
C 1344 -1241 1382 -1089 1408 -1008 
L 1645 -64 
C 2739 -64 3571 854 3571 1680 
C 3571 2343 3085 2816 2374 2816 
L 2752 4390 
z
M 2336 2701 
C 2758 2701 3181 2463 3181 1828 
C 3181 1097 2675 128 1677 50 
L 2336 2701 
z
M 1530 50 
C 1216 50 691 220 691 938 
C 691 1761 1274 2676 2195 2676 
L 1530 50 
z
" transform="scale(0.015625)"/>
       <path id="CMR17-33" d="M 1414 2157 
C 1984 2157 2234 1662 2234 1090 
C 2234 320 1824 25 1453 25 
C 1114 25 563 194 390 693 
C 422 680 454 680 486 680 
C 640 680 755 782 755 948 
C 755 1133 614 1216 486 1216 
C 378 1216 211 1165 211 926 
C 211 335 787 -128 1466 -128 
C 2176 -128 2720 430 2720 1085 
C 2720 1707 2208 2157 1600 2227 
C 2086 2328 2554 2756 2554 3329 
C 2554 3820 2048 4179 1472 4179 
C 890 4179 378 3829 378 3329 
C 378 3110 544 3072 627 3072 
C 762 3072 877 3155 877 3321 
C 877 3486 762 3569 627 3569 
C 602 3569 570 3569 544 3557 
C 730 3959 1235 4032 1459 4032 
C 1683 4032 2106 3925 2106 3320 
C 2106 3143 2080 2828 1862 2550 
C 1670 2304 1453 2304 1242 2284 
C 1210 2284 1062 2269 1037 2269 
C 992 2263 966 2257 966 2208 
C 966 2163 973 2157 1101 2157 
L 1414 2157 
z
" transform="scale(0.015625)"/>
       <path id="CMMI12-3b" d="M 1248 -31 
C 1248 343 1126 619 864 619 
C 659 619 557 453 557 313 
C 557 172 653 0 870 0 
C 954 0 1024 26 1082 83 
C 1094 96 1101 96 1107 96 
C 1120 96 1120 5 1120 -27 
C 1120 -240 1082 -659 710 -1080 
C 640 -1157 640 -1170 640 -1183 
C 640 -1216 672 -1248 704 -1248 
C 755 -1248 1248 -771 1248 -31 
z
" transform="scale(0.015625)"/>
      </defs>
      <use xlink:href="#CMR17-1" transform="scale(0.996264)"/>
      <use xlink:href="#CMMI12-1e" transform="translate(76.91959 0) scale(0.996264)"/>
      <use xlink:href="#CMR17-33" transform="translate(134.65377 -42.783379) scale(0.697382)"/>
      <use xlink:href="#CMMI12-3b" transform="translate(167.135084 0) scale(0.996264)"/>
      <use xlink:href="#CMR17-1" transform="translate(210.836667 0) scale(0.996264)"/>
      <use xlink:href="#CMMI12-1e" transform="translate(287.756256 0) scale(0.996264)"/>
      <use xlink:href="#CMR17-33" transform="translate(345.490437 -22.858631) scale(0.697382)"/>
      <path d="M 0 -35.311521 
L 134.65377 -35.311521 
L 134.65377 -31.326571 
L 0 -31.326571 
L 0 -35.311521 
z
"/>
      <path d="M 210.836667 81.139772 
L 345.490437 81.139772 
L 345.490437 85.124722 
L 210.836667 85.124722 
L 210.836667 81.139772 
z
"/>
     </g>
    </g>
    <g id="text_5">
     <!-- $\times\mathdefault{10^{−11}}\mathdefault{}$ -->
     <g transform="translate(58.278745 10.002895) scale(0.1 -0.1)">
      <defs>
       <path id="CMSY10-2" d="M 2490 1785 
L 1210 3059 
C 1133 3136 1120 3148 1069 3148 
C 1005 3148 941 3091 941 3020 
C 941 2976 954 2963 1024 2892 
L 2304 1606 
L 1024 320 
C 954 249 941 236 941 192 
C 941 121 1005 64 1069 64 
C 1120 64 1133 76 1210 153 
L 2483 1427 
L 3808 102 
C 3821 96 3866 64 3904 64 
C 3981 64 4032 121 4032 192 
C 4032 204 4032 230 4013 262 
C 4006 275 2989 1280 2669 1606 
L 3840 2777 
C 3872 2816 3968 2899 4000 2937 
C 4006 2950 4032 2976 4032 3020 
C 4032 3091 3981 3148 3904 3148 
C 3853 3148 3827 3123 3757 3052 
L 2490 1785 
z
" transform="scale(0.015625)"/>
       <path id="CMR17-31" d="M 1702 4058 
C 1702 4192 1696 4192 1606 4192 
C 1357 3916 979 3827 621 3827 
C 602 3827 570 3827 563 3808 
C 557 3795 557 3782 557 3648 
C 755 3648 1088 3686 1344 3839 
L 1344 461 
C 1344 236 1331 160 781 160 
L 589 160 
L 589 0 
C 896 0 1216 0 1523 0 
C 1830 0 2150 0 2458 0 
L 2458 160 
L 2266 160 
C 1715 160 1702 230 1702 458 
L 1702 4058 
z
" transform="scale(0.015625)"/>
      </defs>
      <use xlink:href="#CMSY10-2" transform="scale(0.996264)"/>
      <use xlink:href="#CMR17-31" transform="translate(77.487468 0) scale(0.996264)"/>
      <use xlink:href="#CMR17-30" transform="translate(123.177945 0) scale(0.996264)"/>
      <use xlink:href="#CMSY10-0" transform="translate(168.868422 36.153639) scale(0.697382)"/>
      <use xlink:href="#CMR17-31" transform="translate(223.109415 36.153639) scale(0.697382)"/>
      <use xlink:href="#CMR17-31" transform="translate(255.092597 36.153639) scale(0.697382)"/>
     </g>
    </g>
   </g>
   <g id="line2d_8">
    <path d="M 65.897509 42.972088 
L 66.405426 40.029995 
L 67.421262 36.054357 
L 68.437097 33.198592 
L 69.452932 31.404532 
L 70.468767 30.112568 
L 71.484602 29.026409 
L 73.516272 27.340383 
L 76.05586 25.628422 
L 78.087531 24.632373 
L 80.627119 23.439157 
L 82.150871 22.882328 
L 86.214212 21.664807 
L 88.245882 21.05837 
L 89.769635 20.734982 
L 91.801305 20.288978 
L 95.864646 19.574618 
L 101.451739 18.81457 
L 116.181349 17.425358 
L 128.879288 16.821783 
L 141.06931 16.461745 
L 178.655211 16.003828 
L 218.272782 15.903257 
L 218.272782 15.903257 
" clip-path="url(#pd4d4c6fd4c)" style="fill: none; stroke: #000000; stroke-width: 0.6; stroke-linecap: square"/>
   </g>
   <g id="line2d_9">
    <path d="M 65.897509 42.972088 
L 66.405426 45.591952 
L 67.421262 49.281597 
L 68.945014 53.193655 
L 69.960849 54.970434 
L 71.99252 57.412497 
L 74.02419 59.30881 
L 75.040025 60.184544 
L 75.547943 60.446908 
L 76.563778 61.223321 
L 81.135036 63.810358 
L 82.658789 64.415002 
L 84.182542 64.935855 
L 86.214212 65.808829 
L 88.245882 66.664804 
L 89.261717 66.9102 
L 93.325058 68.155237 
L 96.880481 68.860619 
L 99.927986 69.488706 
L 103.48341 69.998642 
L 106.530915 70.504331 
L 111.610091 71.171809 
L 115.165514 71.610429 
L 129.895124 72.623947 
L 132.434711 72.723554 
L 138.021805 72.97903 
L 176.623541 73.750341 
L 218.272782 73.91048 
L 218.272782 73.91048 
" clip-path="url(#pd4d4c6fd4c)" style="fill: none; stroke: #000000; stroke-width: 0.6; stroke-linecap: square"/>
   </g>
   <g id="patch_3">
    <path d="M 58.278745 76.810841 
L 58.278745 13.002895 
" style="fill: none; stroke: #000000; stroke-width: 0.8; stroke-linejoin: miter; stroke-linecap: square"/>
   </g>
   <g id="patch_4">
    <path d="M 225.891546 76.810841 
L 225.891546 13.002895 
" style="fill: none; stroke: #000000; stroke-width: 0.8; stroke-linejoin: miter; stroke-linecap: square"/>
   </g>
   <g id="patch_5">
    <path d="M 58.278745 76.810841 
L 225.891546 76.810841 
" style="fill: none; stroke: #000000; stroke-width: 0.8; stroke-linejoin: miter; stroke-linecap: square"/>
   </g>
   <g id="patch_6">
    <path d="M 58.278745 13.002895 
L 225.891546 13.002895 
" style="fill: none; stroke: #000000; stroke-width: 0.8; stroke-linejoin: miter; stroke-linecap: square"/>
   </g>
  </g>
  <g id="axes_2">
   <g id="patch_7">
    <path d="M 290.18696 76.810841 
L 457.79976 76.810841 
L 457.79976 13.002895 
L 290.18696 13.002895 
z
" style="fill: #ffffff"/>
   </g>
   <g id="matplotlib.axis_3">
    <g id="xtick_5">
     <g id="line2d_10">
      <g>
       <use xlink:href="#m0365602c01" x="297.805723" y="76.810841" style="stroke: #000000; stroke-width: 0.8"/>
      </g>
     </g>
    </g>
    <g id="xtick_6">
     <g id="line2d_11">
      <g>
       <use xlink:href="#m0365602c01" x="348.597481" y="76.810841" style="stroke: #000000; stroke-width: 0.8"/>
      </g>
     </g>
    </g>
    <g id="xtick_7">
     <g id="line2d_12">
      <g>
       <use xlink:href="#m0365602c01" x="399.389239" y="76.810841" style="stroke: #000000; stroke-width: 0.8"/>
      </g>
     </g>
    </g>
    <g id="xtick_8">
     <g id="line2d_13">
      <g>
       <use xlink:href="#m0365602c01" x="450.180996" y="76.810841" style="stroke: #000000; stroke-width: 0.8"/>
      </g>
     </g>
    </g>
   </g>
   <g id="matplotlib.axis_4">
    <g id="ytick_4">
     <g id="line2d_14">
      <g>
       <use xlink:href="#m2e26bde07a" x="290.18696" y="73.91048" style="stroke: #000000; stroke-width: 0.8"/>
      </g>
     </g>
     <g id="text_6">
      <!-- $\mathdefault{0}$ -->
      <g transform="translate(278.205624 77.369729) scale(0.1 -0.1)">
       <use xlink:href="#CMR17-30" transform="scale(0.996264)"/>
      </g>
     </g>
    </g>
    <g id="ytick_5">
     <g id="line2d_15">
      <g>
       <use xlink:href="#m2e26bde07a" x="290.18696" y="50.70759" style="stroke: #000000; stroke-width: 0.8"/>
      </g>
     </g>
     <g id="text_7">
      <!-- $\mathdefault{200}$ -->
      <g transform="translate(268.242954 54.16684) scale(0.1 -0.1)">
       <use xlink:href="#CMR17-32" transform="scale(0.996264)"/>
       <use xlink:href="#CMR17-30" transform="translate(45.690477 0) scale(0.996264)"/>
       <use xlink:href="#CMR17-30" transform="translate(91.380954 0) scale(0.996264)"/>
      </g>
     </g>
    </g>
    <g id="ytick_6">
     <g id="line2d_16">
      <g>
       <use xlink:href="#m2e26bde07a" x="290.18696" y="27.504701" style="stroke: #000000; stroke-width: 0.8"/>
      </g>
     </g>
     <g id="text_8">
      <!-- $\mathdefault{400}$ -->
      <g transform="translate(268.242954 30.96395) scale(0.1 -0.1)">
       <defs>
        <path id="CMR17-34" d="M 2150 4122 
C 2150 4256 2144 4256 2029 4256 
L 128 1254 
L 128 1088 
L 1779 1088 
L 1779 457 
C 1779 224 1766 160 1318 160 
L 1197 160 
L 1197 0 
C 1402 0 1747 0 1965 0 
C 2182 0 2528 0 2733 0 
L 2733 160 
L 2611 160 
C 2163 160 2150 224 2150 457 
L 2150 1088 
L 2803 1088 
L 2803 1254 
L 2150 1254 
L 2150 4122 
z
M 1798 3703 
L 1798 1254 
L 256 1254 
L 1798 3703 
z
" transform="scale(0.015625)"/>
       </defs>
       <use xlink:href="#CMR17-34" transform="scale(0.996264)"/>
       <use xlink:href="#CMR17-30" transform="translate(45.690477 0) scale(0.996264)"/>
       <use xlink:href="#CMR17-30" transform="translate(91.380954 0) scale(0.996264)"/>
      </g>
     </g>
    </g>
    <g id="text_9">
     <!-- $Q_{x_3}$ -->
     <g transform="translate(261.752309 52.798828) rotate(-90) scale(0.1 -0.1)">
      <defs>
       <path id="CMMI12-51" d="M 2726 45 
C 3827 490 4646 1663 4646 2829 
C 4646 3893 3955 4544 3059 4544 
C 1690 4544 307 3062 307 1573 
C 307 561 973 -128 1901 -128 
C 2118 -128 2330 -96 2534 -33 
C 2496 -411 2496 -442 2496 -562 
C 2496 -744 2496 -1216 3008 -1216 
C 3770 -1216 4051 -37 4051 2 
C 4051 39 4026 64 3994 64 
C 3955 64 3942 34 3923 -36 
C 3782 -429 3450 -654 3168 -654 
C 2842 -654 2758 -435 2726 45 
z
M 1574 77 
C 1069 252 826 787 826 1379 
C 826 1831 992 2689 1414 3340 
C 1888 4075 2522 4404 3021 4404 
C 3686 4404 4134 3862 4134 3024 
C 4134 2547 3910 948 2707 240 
C 2675 571 2586 960 2163 960 
C 1818 960 1523 609 1523 291 
C 1523 220 1549 123 1574 77 
z
M 2547 156 
C 2317 52 2118 12 1939 12 
C 1875 12 1651 12 1651 298 
C 1651 533 1875 832 2163 832 
C 2483 832 2554 611 2554 286 
C 2554 246 2554 194 2547 156 
z
" transform="scale(0.015625)"/>
       <path id="CMMI12-78" d="M 3034 2606 
C 2829 2567 2752 2414 2752 2293 
C 2752 2139 2874 2088 2963 2088 
C 3155 2088 3290 2254 3290 2427 
C 3290 2695 2982 2816 2714 2816 
C 2323 2816 2106 2433 2048 2312 
C 1901 2816 1504 2816 1389 2816 
C 736 2816 390 1980 390 1839 
C 390 1814 416 1782 461 1782 
C 512 1782 525 1820 538 1846 
C 755 2555 1184 2689 1370 2689 
C 1658 2689 1715 2420 1715 2267 
C 1715 2127 1677 1980 1600 1673 
L 1382 798 
C 1286 415 1101 64 762 64 
C 730 64 570 64 435 147 
C 666 192 717 383 717 460 
C 717 588 621 664 499 664 
C 346 664 179 530 179 326 
C 179 57 480 -64 755 -64 
C 1062 -64 1280 179 1414 441 
C 1517 64 1837 -64 2074 -64 
C 2726 -64 3072 773 3072 913 
C 3072 945 3046 971 3008 971 
C 2950 971 2944 939 2925 888 
C 2752 326 2381 64 2093 64 
C 1869 64 1747 230 1747 492 
C 1747 632 1773 734 1875 1156 
L 2099 2024 
C 2195 2408 2413 2689 2707 2689 
C 2720 2689 2899 2689 3034 2606 
z
" transform="scale(0.015625)"/>
      </defs>
      <use xlink:href="#CMMI12-51" transform="scale(0.996264)"/>
      <use xlink:href="#CMMI12-78" transform="translate(77.260399 -14.943915) scale(0.697382)"/>
      <use xlink:href="#CMR17-33" transform="translate(116.064058 -25.404611) scale(0.498132)"/>
     </g>
    </g>
   </g>
   <g id="line2d_17">
    <path d="M 297.805723 15.903257 
L 450.180996 15.903257 
L 450.180996 15.903257 
" clip-path="url(#pcddf379b65)" style="fill: none; stroke: #000000; stroke-width: 0.6; stroke-linecap: square"/>
   </g>
   <g id="line2d_18">
    <path d="M 297.805723 73.91048 
L 450.180996 73.91048 
L 450.180996 73.91048 
" clip-path="url(#pcddf379b65)" style="fill: none; stroke: #000000; stroke-width: 0.6; stroke-linecap: square"/>
   </g>
   <g id="line2d_19">
    <path d="M 297.805723 73.91048 
L 450.180996 73.91048 
L 450.180996 73.91048 
" clip-path="url(#pcddf379b65)" style="fill: none; stroke: #000000; stroke-width: 0.6; stroke-linecap: square"/>
   </g>
   <g id="line2d_20">
    <path d="M 297.805723 73.91048 
L 450.180996 73.91048 
L 450.180996 73.91048 
" clip-path="url(#pcddf379b65)" style="fill: none; stroke: #000000; stroke-width: 0.6; stroke-linecap: square"/>
   </g>
   <g id="line2d_21">
    <path d="M 297.805723 73.91048 
L 450.180996 73.91048 
L 450.180996 73.91048 
" clip-path="url(#pcddf379b65)" style="fill: none; stroke: #000000; stroke-width: 0.6; stroke-linecap: square"/>
   </g>
   <g id="line2d_22">
    <path d="M 297.805723 73.898878 
L 450.180996 73.898878 
L 450.180996 73.898878 
" clip-path="url(#pcddf379b65)" style="fill: none; stroke: #000000; stroke-width: 0.6; stroke-linecap: square"/>
   </g>
   <g id="line2d_23">
    <path d="M 297.805723 73.91048 
L 450.180996 73.91048 
L 450.180996 73.91048 
" clip-path="url(#pcddf379b65)" style="fill: none; stroke: #000000; stroke-width: 0.6; stroke-linecap: square"/>
   </g>
   <g id="line2d_24">
    <path d="M 297.805723 73.91048 
L 450.180996 73.91048 
L 450.180996 73.91048 
" clip-path="url(#pcddf379b65)" style="fill: none; stroke: #000000; stroke-width: 0.6; stroke-linecap: square"/>
   </g>
   <g id="line2d_25">
    <path d="M 297.805723 73.91048 
L 450.180996 73.91048 
L 450.180996 73.91048 
" clip-path="url(#pcddf379b65)" style="fill: none; stroke: #000000; stroke-width: 0.6; stroke-linecap: square"/>
   </g>
   <g id="line2d_26">
    <path d="M 297.805723 73.91048 
L 450.180996 73.91048 
L 450.180996 73.91048 
" clip-path="url(#pcddf379b65)" style="fill: none; stroke: #000000; stroke-width: 0.6; stroke-linecap: square"/>
   </g>
   <g id="line2d_27">
    <path d="M 297.805723 73.898878 
L 450.180996 73.898878 
L 450.180996 73.898878 
" clip-path="url(#pcddf379b65)" style="fill: none; stroke: #000000; stroke-width: 0.6; stroke-linecap: square"/>
   </g>
   <g id="line2d_28">
    <path d="M 297.805723 73.91048 
L 450.180996 73.910479 
L 450.180996 73.910479 
" clip-path="url(#pcddf379b65)" style="fill: none; stroke: #000000; stroke-width: 0.6; stroke-linecap: square"/>
   </g>
   <g id="line2d_29">
    <path d="M 297.805723 73.91048 
L 450.180996 73.91048 
L 450.180996 73.91048 
" clip-path="url(#pcddf379b65)" style="fill: none; stroke: #000000; stroke-width: 0.6; stroke-linecap: square"/>
   </g>
   <g id="line2d_30">
    <path d="M 297.805723 73.91048 
L 450.180996 73.91048 
L 450.180996 73.91048 
" clip-path="url(#pcddf379b65)" style="fill: none; stroke: #000000; stroke-width: 0.6; stroke-linecap: square"/>
   </g>
   <g id="line2d_31">
    <path d="M 297.805723 73.91048 
L 450.180996 73.910479 
L 450.180996 73.910479 
" clip-path="url(#pcddf379b65)" style="fill: none; stroke: #000000; stroke-width: 0.6; stroke-linecap: square"/>
   </g>
   <g id="line2d_32">
    <path d="M 297.805723 72.750335 
L 450.180996 72.750335 
L 450.180996 72.750335 
" clip-path="url(#pcddf379b65)" style="fill: none; stroke: #000000; stroke-width: 0.6; stroke-linecap: square"/>
   </g>
   <g id="patch_8">
    <path d="M 290.18696 76.810841 
L 290.18696 13.002895 
" style="fill: none; stroke: #000000; stroke-width: 0.8; stroke-linejoin: miter; stroke-linecap: square"/>
   </g>
   <g id="patch_9">
    <path d="M 457.79976 76.810841 
L 457.79976 13.002895 
" style="fill: none; stroke: #000000; stroke-width: 0.8; stroke-linejoin: miter; stroke-linecap: square"/>
   </g>
   <g id="patch_10">
    <path d="M 290.18696 76.810841 
L 457.79976 76.810841 
" style="fill: none; stroke: #000000; stroke-width: 0.8; stroke-linejoin: miter; stroke-linecap: square"/>
   </g>
   <g id="patch_11">
    <path d="M 290.18696 13.002895 
L 457.79976 13.002895 
" style="fill: none; stroke: #000000; stroke-width: 0.8; stroke-linejoin: miter; stroke-linecap: square"/>
   </g>
  </g>
  <g id="axes_3">
   <g id="patch_12">
    <path d="M 58.278745 160.121922 
L 225.891546 160.121922 
L 225.891546 96.313976 
L 58.278745 96.313976 
z
" style="fill: #ffffff"/>
   </g>
   <g id="matplotlib.axis_5">
    <g id="xtick_9">
     <g id="line2d_33">
      <g>
       <use xlink:href="#m0365602c01" x="65.897509" y="160.121922" style="stroke: #000000; stroke-width: 0.8"/>
      </g>
     </g>
    </g>
    <g id="xtick_10">
     <g id="line2d_34">
      <g>
       <use xlink:href="#m0365602c01" x="116.689267" y="160.121922" style="stroke: #000000; stroke-width: 0.8"/>
      </g>
     </g>
    </g>
    <g id="xtick_11">
     <g id="line2d_35">
      <g>
       <use xlink:href="#m0365602c01" x="167.481024" y="160.121922" style="stroke: #000000; stroke-width: 0.8"/>
      </g>
     </g>
    </g>
    <g id="xtick_12">
     <g id="line2d_36">
      <g>
       <use xlink:href="#m0365602c01" x="218.272782" y="160.121922" style="stroke: #000000; stroke-width: 0.8"/>
      </g>
     </g>
    </g>
   </g>
   <g id="matplotlib.axis_6">
    <g id="ytick_7">
     <g id="line2d_37">
      <g>
       <use xlink:href="#m2e26bde07a" x="58.278745" y="157.22156" style="stroke: #000000; stroke-width: 0.8"/>
      </g>
     </g>
     <g id="text_10">
      <!-- $\mathdefault{0.0}$ -->
      <g transform="translate(38.548666 160.68081) scale(0.1 -0.1)">
       <use xlink:href="#CMR17-30" transform="scale(0.996264)"/>
       <use xlink:href="#CMMI12-3a" transform="translate(45.690477 0) scale(0.996264)"/>
       <use xlink:href="#CMR17-30" transform="translate(72.787654 0) scale(0.996264)"/>
      </g>
     </g>
    </g>
    <g id="ytick_8">
     <g id="line2d_38">
      <g>
       <use xlink:href="#m2e26bde07a" x="58.278745" y="130.79339" style="stroke: #000000; stroke-width: 0.8"/>
      </g>
     </g>
     <g id="text_11">
      <!-- $\mathdefault{2.5}$ -->
      <g transform="translate(38.548666 134.252639) scale(0.1 -0.1)">
       <use xlink:href="#CMR17-32" transform="scale(0.996264)"/>
       <use xlink:href="#CMMI12-3a" transform="translate(45.690477 0) scale(0.996264)"/>
       <use xlink:href="#CMR17-35" transform="translate(72.787654 0) scale(0.996264)"/>
      </g>
     </g>
    </g>
    <g id="ytick_9">
     <g id="line2d_39">
      <g>
       <use xlink:href="#m2e26bde07a" x="58.278745" y="104.365219" style="stroke: #000000; stroke-width: 0.8"/>
      </g>
     </g>
     <g id="text_12">
      <!-- $\mathdefault{5.0}$ -->
      <g transform="translate(38.548666 107.824468) scale(0.1 -0.1)">
       <use xlink:href="#CMR17-35" transform="scale(0.996264)"/>
       <use xlink:href="#CMMI12-3a" transform="translate(45.690477 0) scale(0.996264)"/>
       <use xlink:href="#CMR17-30" transform="translate(72.787654 0) scale(0.996264)"/>
      </g>
     </g>
    </g>
    <g id="text_13">
     <!-- $V_{3,0}$ -->
     <g transform="translate(31.698271 136.278018) rotate(-90) scale(0.1 -0.1)">
      <defs>
       <path id="CMMI12-56" d="M 3962 3640 
C 4179 3984 4378 4136 4704 4162 
C 4768 4168 4819 4168 4819 4282 
C 4819 4308 4806 4346 4749 4346 
C 4634 4346 4358 4346 4243 4346 
C 4058 4346 3866 4346 3686 4346 
C 3635 4346 3571 4346 3571 4226 
C 3571 4168 3629 4162 3654 4162 
C 3891 4143 3917 4029 3917 3952 
C 3917 3857 3827 3710 3821 3704 
L 1811 540 
L 1363 3969 
C 1363 4160 1696 4160 1766 4160 
C 1862 4160 1920 4160 1920 4282 
C 1920 4346 1850 4346 1830 4346 
C 1722 4346 1594 4346 1485 4346 
L 1126 4346 
C 659 4346 467 4346 461 4346 
C 422 4346 346 4346 346 4230 
C 346 4160 390 4160 493 4160 
C 819 4160 838 4102 858 3944 
L 1370 24 
C 1389 -109 1389 -128 1478 -128 
C 1555 -128 1587 -109 1651 -8 
L 3962 3640 
z
" transform="scale(0.015625)"/>
      </defs>
      <use xlink:href="#CMMI12-56" transform="scale(0.996264)"/>
      <use xlink:href="#CMR17-33" transform="translate(56.869579 -14.943915) scale(0.697382)"/>
      <use xlink:href="#CMMI12-3b" transform="translate(88.852761 -14.943915) scale(0.697382)"/>
      <use xlink:href="#CMR17-30" transform="translate(107.820694 -14.943915) scale(0.697382)"/>
     </g>
    </g>
    <g id="text_14">
     <!-- $\times\mathdefault{10^{−5}}\mathdefault{}$ -->
     <g transform="translate(58.278745 93.313976) scale(0.1 -0.1)">
      <use xlink:href="#CMSY10-2" transform="scale(0.996264)"/>
      <use xlink:href="#CMR17-31" transform="translate(77.487468 0) scale(0.996264)"/>
      <use xlink:href="#CMR17-30" transform="translate(123.177945 0) scale(0.996264)"/>
      <use xlink:href="#CMSY10-0" transform="translate(168.868422 36.153639) scale(0.697382)"/>
      <use xlink:href="#CMR17-35" transform="translate(223.109415 36.153639) scale(0.697382)"/>
     </g>
    </g>
   </g>
   <g id="line2d_40">
    <path d="M 65.897509 157.22156 
L 66.405426 151.64325 
L 67.421262 143.940614 
L 68.437097 138.149496 
L 69.452932 134.352692 
L 70.468767 131.593258 
L 71.484602 129.238914 
L 73.516272 125.555138 
L 75.040025 123.121546 
L 75.547943 122.617328 
L 76.563778 121.191847 
L 77.579613 120.005175 
L 78.087531 119.653752 
L 80.119201 117.455498 
L 81.642954 116.027896 
L 85.198377 113.765757 
L 86.214212 112.918221 
L 88.245882 111.487386 
L 89.261717 111.043715 
L 91.293388 109.99171 
L 93.325058 108.910788 
L 94.848811 108.399117 
L 97.388399 107.47399 
L 100.435904 106.510414 
L 109.57842 104.186033 
L 111.610091 103.77995 
L 113.133843 103.491601 
L 123.292195 101.97166 
L 125.831783 101.734694 
L 127.355536 101.594653 
L 141.06931 100.582241 
L 149.703909 100.172181 
L 157.322673 99.877485 
L 174.083953 99.518666 
L 201.003584 99.271121 
L 218.272782 99.214337 
L 218.272782 99.214337 
" clip-path="url(#p6284af74d4)" style="fill: none; stroke: #000000; stroke-width: 0.6; stroke-linecap: square"/>
   </g>
   <g id="patch_13">
    <path d="M 58.278745 160.121922 
L 58.278745 96.313976 
" style="fill: none; stroke: #000000; stroke-width: 0.8; stroke-linejoin: miter; stroke-linecap: square"/>
   </g>
   <g id="patch_14">
    <path d="M 225.891546 160.121922 
L 225.891546 96.313976 
" style="fill: none; stroke: #000000; stroke-width: 0.8; stroke-linejoin: miter; stroke-linecap: square"/>
   </g>
   <g id="patch_15">
    <path d="M 58.278745 160.121922 
L 225.891546 160.121922 
" style="fill: none; stroke: #000000; stroke-width: 0.8; stroke-linejoin: miter; stroke-linecap: square"/>
   </g>
   <g id="patch_16">
    <path d="M 58.278745 96.313976 
L 225.891546 96.313976 
" style="fill: none; stroke: #000000; stroke-width: 0.8; stroke-linejoin: miter; stroke-linecap: square"/>
   </g>
  </g>
  <g id="axes_4">
   <g id="patch_17">
    <path d="M 290.18696 160.121922 
L 457.79976 160.121922 
L 457.79976 96.313976 
L 290.18696 96.313976 
z
" style="fill: #ffffff"/>
   </g>
   <g id="matplotlib.axis_7">
    <g id="xtick_13">
     <g id="line2d_41">
      <g>
       <use xlink:href="#m0365602c01" x="297.805723" y="160.121922" style="stroke: #000000; stroke-width: 0.8"/>
      </g>
     </g>
    </g>
    <g id="xtick_14">
     <g id="line2d_42">
      <g>
       <use xlink:href="#m0365602c01" x="348.597481" y="160.121922" style="stroke: #000000; stroke-width: 0.8"/>
      </g>
     </g>
    </g>
    <g id="xtick_15">
     <g id="line2d_43">
      <g>
       <use xlink:href="#m0365602c01" x="399.389239" y="160.121922" style="stroke: #000000; stroke-width: 0.8"/>
      </g>
     </g>
    </g>
    <g id="xtick_16">
     <g id="line2d_44">
      <g>
       <use xlink:href="#m0365602c01" x="450.180996" y="160.121922" style="stroke: #000000; stroke-width: 0.8"/>
      </g>
     </g>
    </g>
   </g>
   <g id="matplotlib.axis_8">
    <g id="ytick_10">
     <g id="line2d_45">
      <g>
       <use xlink:href="#m2e26bde07a" x="290.18696" y="157.221561" style="stroke: #000000; stroke-width: 0.8"/>
      </g>
     </g>
     <g id="text_15">
      <!-- $\mathdefault{0}$ -->
      <g transform="translate(278.205624 160.68081) scale(0.1 -0.1)">
       <use xlink:href="#CMR17-30" transform="scale(0.996264)"/>
      </g>
     </g>
    </g>
    <g id="ytick_11">
     <g id="line2d_46">
      <g>
       <use xlink:href="#m2e26bde07a" x="290.18696" y="117.254467" style="stroke: #000000; stroke-width: 0.8"/>
      </g>
     </g>
     <g id="text_16">
      <!-- $\mathdefault{5}$ -->
      <g transform="translate(278.205624 120.713717) scale(0.1 -0.1)">
       <use xlink:href="#CMR17-35" transform="scale(0.996264)"/>
      </g>
     </g>
    </g>
    <g id="text_17">
     <!-- $Q_{u_3}$ -->
     <g transform="translate(271.71498 136.206212) rotate(-90) scale(0.1 -0.1)">
      <defs>
       <path id="CMMI12-75" d="M 2182 370 
C 2266 13 2573 -64 2726 -64 
C 2931 -64 3085 70 3187 287 
C 3296 517 3379 894 3379 913 
C 3379 945 3354 971 3315 971 
C 3258 971 3251 939 3226 843 
C 3110 402 2995 64 2739 64 
C 2547 64 2547 275 2547 358 
C 2547 505 2566 568 2630 837 
C 2675 1009 2720 1181 2758 1360 
L 3021 2401 
C 3066 2561 3066 2574 3066 2593 
C 3066 2689 2989 2753 2893 2753 
C 2707 2753 2662 2593 2624 2433 
C 2560 2184 2214 811 2170 588 
C 2163 588 1914 64 1446 64 
C 1114 64 1050 351 1050 588 
C 1050 952 1229 1462 1395 1890 
C 1472 2095 1504 2178 1504 2305 
C 1504 2580 1306 2816 998 2816 
C 410 2816 173 1890 173 1839 
C 173 1814 198 1782 243 1782 
C 301 1782 307 1807 333 1896 
C 486 2441 736 2682 979 2682 
C 1043 2682 1146 2682 1146 2478 
C 1146 2312 1075 2127 979 1884 
C 698 1124 666 881 666 690 
C 666 38 1158 -64 1421 -64 
C 1830 -64 2054 217 2182 370 
z
" transform="scale(0.015625)"/>
      </defs>
      <use xlink:href="#CMMI12-51" transform="scale(0.996264)"/>
      <use xlink:href="#CMMI12-75" transform="translate(77.260399 -14.943915) scale(0.697382)"/>
      <use xlink:href="#CMR17-33" transform="translate(116.124455 -25.404611) scale(0.498132)"/>
     </g>
    </g>
    <g id="text_18">
     <!-- $\times\mathdefault{10^{−7}}\mathdefault{+10^{1}}$ -->
     <g transform="translate(290.18696 93.313976) scale(0.1 -0.1)">
      <defs>
       <path id="CMR17-37" d="M 2886 3941 
L 2886 4081 
L 1382 4081 
C 634 4081 621 4165 595 4288 
L 480 4288 
L 294 3094 
L 410 3094 
C 429 3215 474 3540 550 3661 
C 589 3712 1062 3712 1171 3712 
L 2579 3712 
L 1869 2661 
C 1395 1954 1069 999 1069 165 
C 1069 89 1069 -128 1299 -128 
C 1530 -128 1530 89 1530 171 
L 1530 465 
C 1530 1508 1709 2196 2003 2636 
L 2886 3941 
z
" transform="scale(0.015625)"/>
       <path id="CMR17-2b" d="M 2413 1472 
L 4109 1472 
C 4198 1472 4307 1472 4307 1580 
C 4307 1695 4205 1695 4109 1695 
L 2413 1695 
L 2413 3386 
C 2413 3475 2413 3584 2304 3584 
C 2189 3584 2189 3482 2189 3386 
L 2189 1695 
L 493 1695 
C 403 1695 294 1695 294 1587 
C 294 1472 397 1472 493 1472 
L 2189 1472 
L 2189 -218 
C 2189 -307 2189 -416 2298 -416 
C 2413 -416 2413 -314 2413 -218 
L 2413 1472 
z
" transform="scale(0.015625)"/>
      </defs>
      <use xlink:href="#CMSY10-2" transform="scale(0.996264)"/>
      <use xlink:href="#CMR17-31" transform="translate(77.487468 0) scale(0.996264)"/>
      <use xlink:href="#CMR17-30" transform="translate(123.177945 0) scale(0.996264)"/>
      <use xlink:href="#CMSY10-0" transform="translate(168.868422 36.153639) scale(0.697382)"/>
      <use xlink:href="#CMR17-37" transform="translate(223.109415 36.153639) scale(0.697382)"/>
      <use xlink:href="#CMR17-2b" transform="translate(277.729936 0) scale(0.996264)"/>
      <use xlink:href="#CMR17-31" transform="translate(371.583931 0) scale(0.996264)"/>
      <use xlink:href="#CMR17-30" transform="translate(417.274409 0) scale(0.996264)"/>
      <use xlink:href="#CMR17-31" transform="translate(462.964886 36.153639) scale(0.697382)"/>
     </g>
    </g>
   </g>
   <g id="line2d_47">
    <path d="M 297.805723 157.221561 
L 298.313641 146.81627 
L 299.329476 134.186224 
L 299.837394 129.791376 
L 300.345311 123.96027 
L 301.869064 114.488038 
L 302.376981 112.939662 
L 302.884899 110.998844 
L 303.900734 108.271396 
L 304.916569 107.18072 
L 305.424487 106.24634 
L 306.440322 105.537353 
L 306.94824 104.786257 
L 307.456157 104.783772 
L 307.964075 104.421548 
L 308.471992 104.637169 
L 308.97991 105.121692 
L 309.995745 105.535214 
L 310.503663 105.091017 
L 311.01158 104.301332 
L 312.535333 103.204609 
L 313.043251 103.169573 
L 313.551168 102.845723 
L 314.059086 103.231285 
L 314.567003 103.017807 
L 315.074921 103.65926 
L 315.582838 103.145945 
L 316.090756 103.089484 
L 318.122426 101.551261 
L 318.630344 101.286824 
L 319.646179 101.322735 
L 320.154097 100.865031 
L 320.662014 101.135909 
L 321.677849 100.8147 
L 322.185767 100.373633 
L 322.693685 100.079871 
L 323.201602 100.298909 
L 323.70952 100.127862 
L 324.217437 100.23531 
L 324.725355 100.153092 
L 325.233272 99.819548 
L 325.74119 99.875336 
L 326.249108 100.101979 
L 327.264943 99.795034 
L 327.77286 99.909106 
L 328.788695 99.748972 
L 329.296613 99.545575 
L 330.312448 99.298571 
L 330.820366 99.556649 
L 331.328283 99.458577 
L 331.836201 99.521971 
L 332.344118 99.75336 
L 333.867871 99.782596 
L 334.375789 99.452195 
L 334.883706 99.671253 
L 336.407459 99.577668 
L 336.915377 99.459345 
L 337.423294 99.214337 
L 337.931212 99.519241 
L 338.439129 99.405762 
L 338.947047 99.493374 
L 339.454965 99.419478 
L 339.962882 99.508872 
L 341.486635 99.215958 
L 342.50247 99.491467 
L 343.010388 99.53011 
L 343.518305 99.39962 
L 345.042058 99.456506 
L 345.549975 99.708628 
L 346.057893 99.547916 
L 346.565811 99.673709 
L 347.073728 99.672089 
L 347.581646 99.887928 
L 349.105399 99.993775 
L 349.613316 99.949609 
L 350.121234 100.091317 
L 351.137069 100.176651 
L 352.152904 100.439593 
L 353.168739 100.390781 
L 353.676657 100.417884 
L 355.200409 100.179636 
L 357.23208 100.112492 
L 358.755832 100.011131 
L 360.787503 100.236921 
L 361.803338 100.149931 
L 362.311256 100.326774 
L 367.898349 100.430912 
L 369.930019 100.439901 
L 370.945854 100.583284 
L 378.564618 100.847259 
L 380.596288 101.035302 
L 391.262557 101.104575 
L 393.294228 101.136412 
L 396.849651 101.175004 
L 398.373403 101.234966 
L 420.721777 101.270896 
L 427.832623 101.243459 
L 439.514727 101.285034 
L 450.180996 101.312909 
L 450.180996 101.312909 
" clip-path="url(#pe830e806b4)" style="fill: none; stroke: #000000; stroke-width: 0.6; stroke-linecap: square"/>
   </g>
   <g id="patch_18">
    <path d="M 290.18696 160.121922 
L 290.18696 96.313976 
" style="fill: none; stroke: #000000; stroke-width: 0.8; stroke-linejoin: miter; stroke-linecap: square"/>
   </g>
   <g id="patch_19">
    <path d="M 457.79976 160.121922 
L 457.79976 96.313976 
" style="fill: none; stroke: #000000; stroke-width: 0.8; stroke-linejoin: miter; stroke-linecap: square"/>
   </g>
   <g id="patch_20">
    <path d="M 290.18696 160.121922 
L 457.79976 160.121922 
" style="fill: none; stroke: #000000; stroke-width: 0.8; stroke-linejoin: miter; stroke-linecap: square"/>
   </g>
   <g id="patch_21">
    <path d="M 290.18696 96.313976 
L 457.79976 96.313976 
" style="fill: none; stroke: #000000; stroke-width: 0.8; stroke-linejoin: miter; stroke-linecap: square"/>
   </g>
  </g>
  <g id="axes_5">
   <g id="patch_22">
    <path d="M 58.278745 243.433002 
L 225.891546 243.433002 
L 225.891546 179.625057 
L 58.278745 179.625057 
z
" style="fill: #ffffff"/>
   </g>
   <g id="matplotlib.axis_9">
    <g id="xtick_17">
     <g id="line2d_48">
      <g>
       <use xlink:href="#m0365602c01" x="65.897509" y="243.433002" style="stroke: #000000; stroke-width: 0.8"/>
      </g>
     </g>
    </g>
    <g id="xtick_18">
     <g id="line2d_49">
      <g>
       <use xlink:href="#m0365602c01" x="116.689267" y="243.433002" style="stroke: #000000; stroke-width: 0.8"/>
      </g>
     </g>
    </g>
    <g id="xtick_19">
     <g id="line2d_50">
      <g>
       <use xlink:href="#m0365602c01" x="167.481024" y="243.433002" style="stroke: #000000; stroke-width: 0.8"/>
      </g>
     </g>
    </g>
    <g id="xtick_20">
     <g id="line2d_51">
      <g>
       <use xlink:href="#m0365602c01" x="218.272782" y="243.433002" style="stroke: #000000; stroke-width: 0.8"/>
      </g>
     </g>
    </g>
   </g>
   <g id="matplotlib.axis_10">
    <g id="ytick_12">
     <g id="line2d_52">
      <g>
       <use xlink:href="#m2e26bde07a" x="58.278745" y="218.083953" style="stroke: #000000; stroke-width: 0.8"/>
      </g>
     </g>
     <g id="text_19">
      <!-- $\mathdefault{−0.0005}$ -->
      <g transform="translate(15.855917 221.543202) scale(0.1 -0.1)">
       <use xlink:href="#CMSY10-0" transform="scale(0.996264)"/>
       <use xlink:href="#CMR17-30" transform="translate(77.487468 0) scale(0.996264)"/>
       <use xlink:href="#CMMI12-3a" transform="translate(123.177945 0) scale(0.996264)"/>
       <use xlink:href="#CMR17-30" transform="translate(150.275122 0) scale(0.996264)"/>
       <use xlink:href="#CMR17-30" transform="translate(195.965599 0) scale(0.996264)"/>
       <use xlink:href="#CMR17-30" transform="translate(241.656076 0) scale(0.996264)"/>
       <use xlink:href="#CMR17-35" transform="translate(287.346553 0) scale(0.996264)"/>
      </g>
     </g>
    </g>
    <g id="ytick_13">
     <g id="line2d_53">
      <g>
       <use xlink:href="#m2e26bde07a" x="58.278745" y="184.396954" style="stroke: #000000; stroke-width: 0.8"/>
      </g>
     </g>
     <g id="text_20">
      <!-- $\mathdefault{0.0000}$ -->
      <g transform="translate(23.60466 187.856203) scale(0.1 -0.1)">
       <use xlink:href="#CMR17-30" transform="scale(0.996264)"/>
       <use xlink:href="#CMMI12-3a" transform="translate(45.690477 0) scale(0.996264)"/>
       <use xlink:href="#CMR17-30" transform="translate(72.787654 0) scale(0.996264)"/>
       <use xlink:href="#CMR17-30" transform="translate(118.478131 0) scale(0.996264)"/>
       <use xlink:href="#CMR17-30" transform="translate(164.168608 0) scale(0.996264)"/>
       <use xlink:href="#CMR17-30" transform="translate(209.859086 0) scale(0.996264)"/>
      </g>
     </g>
    </g>
    <g id="text_21">
     <!-- $b_3$ -->
     <g transform="translate(9.918738 215.65246) rotate(-90) scale(0.1 -0.1)">
      <defs>
       <path id="CMMI12-62" d="M 1478 4257 
C 1485 4283 1498 4321 1498 4352 
C 1498 4416 1434 4416 1421 4416 
C 1414 4416 1184 4393 1069 4377 
C 960 4377 864 4358 749 4358 
C 595 4345 550 4339 550 4224 
C 550 4160 614 4160 678 4160 
C 1005 4160 1005 4103 1005 4040 
C 1005 3996 954 3811 928 3696 
L 774 3085 
C 710 2831 346 1387 320 1272 
C 288 1114 288 1005 288 922 
C 288 274 653 -64 1069 -64 
C 1811 -64 2579 888 2579 1814 
C 2579 2401 2246 2816 1766 2816 
C 1434 2816 1133 2542 1011 2414 
L 1478 4257 
z
M 1075 64 
C 870 64 646 217 646 715 
C 646 926 666 1047 781 1494 
C 800 1577 902 1986 928 2069 
C 941 2120 1318 2689 1754 2689 
C 2035 2689 2163 2408 2163 2076 
C 2163 1769 1984 1047 1824 715 
C 1664 370 1370 64 1075 64 
z
" transform="scale(0.015625)"/>
      </defs>
      <use xlink:href="#CMMI12-62" transform="scale(0.996264)"/>
      <use xlink:href="#CMR17-33" transform="translate(41.475874 -14.943915) scale(0.697382)"/>
     </g>
    </g>
   </g>
   <g id="line2d_54">
    <path d="M 65.897509 184.396954 
L 66.405426 191.378669 
L 67.421262 200.44586 
L 68.945014 209.894295 
L 69.452932 212.215568 
L 70.468767 215.275151 
L 71.484602 217.860453 
L 72.500437 219.799844 
L 75.040025 223.052857 
L 75.547943 223.29383 
L 76.05586 223.875757 
L 78.595448 225.514386 
L 79.103366 226.19431 
L 80.119201 226.979309 
L 81.642954 228.22585 
L 82.150871 228.288296 
L 82.658789 228.535443 
L 83.166706 228.591018 
L 83.674624 228.981609 
L 84.182542 229.198592 
L 86.722129 230.961178 
L 87.737965 231.395339 
L 88.245882 231.766379 
L 88.7538 231.79454 
L 89.769635 232.35528 
L 90.78547 233.069322 
L 91.293388 233.061943 
L 93.325058 233.93744 
L 94.848811 234.174551 
L 95.356728 234.366218 
L 96.372563 234.557052 
L 98.404234 235.23027 
L 100.435904 235.490491 
L 102.467574 235.99821 
L 103.48341 236.073518 
L 106.022997 236.693869 
L 110.086338 237.359276 
L 111.102173 237.406381 
L 112.118008 237.626602 
L 113.133843 237.739502 
L 113.641761 237.725183 
L 114.657596 237.948331 
L 118.213019 238.259736 
L 121.768442 238.563557 
L 123.800113 238.785896 
L 138.021805 239.568063 
L 140.561393 239.590064 
L 142.593063 239.665071 
L 157.83059 240.067789 
L 169.512695 240.23636 
L 179.671046 240.355893 
L 218.272782 240.531995 
L 218.272782 240.531995 
" clip-path="url(#p794e16e426)" style="fill: none; stroke: #000000; stroke-width: 0.6; stroke-linecap: square"/>
   </g>
   <g id="line2d_55">
    <path d="M 65.897509 184.396954 
L 66.405426 184.885316 
L 66.913344 185.156304 
L 68.437097 185.477786 
L 73.008355 185.285897 
L 79.103366 184.383166 
L 90.277553 183.757194 
L 93.325058 183.642601 
L 96.372563 183.532076 
L 130.910959 182.832801 
L 163.417684 182.583585 
L 218.272782 182.525418 
L 218.272782 182.525418 
" clip-path="url(#p794e16e426)" style="fill: none; stroke: #000000; stroke-width: 0.6; stroke-linecap: square"/>
   </g>
   <g id="line2d_56">
    <path d="M 65.897509 184.396954 
L 80.119201 184.352139 
L 127.355536 184.311969 
L 218.272782 184.30371 
L 218.272782 184.30371 
" clip-path="url(#p794e16e426)" style="fill: none; stroke: #000000; stroke-width: 0.6; stroke-linecap: square"/>
   </g>
   <g id="line2d_57">
    <path d="M 65.897509 184.396954 
L 68.437097 184.599062 
L 74.02419 184.698555 
L 84.182542 184.758036 
L 218.272782 184.776068 
L 218.272782 184.776068 
" clip-path="url(#p794e16e426)" style="fill: none; stroke: #000000; stroke-width: 0.6; stroke-linecap: square"/>
   </g>
   <g id="patch_23">
    <path d="M 58.278745 243.433002 
L 58.278745 179.625057 
" style="fill: none; stroke: #000000; stroke-width: 0.8; stroke-linejoin: miter; stroke-linecap: square"/>
   </g>
   <g id="patch_24">
    <path d="M 225.891546 243.433002 
L 225.891546 179.625057 
" style="fill: none; stroke: #000000; stroke-width: 0.8; stroke-linejoin: miter; stroke-linecap: square"/>
   </g>
   <g id="patch_25">
    <path d="M 58.278745 243.433002 
L 225.891546 243.433002 
" style="fill: none; stroke: #000000; stroke-width: 0.8; stroke-linejoin: miter; stroke-linecap: square"/>
   </g>
   <g id="patch_26">
    <path d="M 58.278745 179.625057 
L 225.891546 179.625057 
" style="fill: none; stroke: #000000; stroke-width: 0.8; stroke-linejoin: miter; stroke-linecap: square"/>
   </g>
  </g>
  <g id="axes_6">
   <g id="patch_27">
    <path d="M 290.18696 243.433002 
L 457.79976 243.433002 
L 457.79976 179.625057 
L 290.18696 179.625057 
z
" style="fill: #ffffff"/>
   </g>
   <g id="matplotlib.axis_11">
    <g id="xtick_21">
     <g id="line2d_58">
      <g>
       <use xlink:href="#m0365602c01" x="297.805723" y="243.433002" style="stroke: #000000; stroke-width: 0.8"/>
      </g>
     </g>
    </g>
    <g id="xtick_22">
     <g id="line2d_59">
      <g>
       <use xlink:href="#m0365602c01" x="348.597481" y="243.433002" style="stroke: #000000; stroke-width: 0.8"/>
      </g>
     </g>
    </g>
    <g id="xtick_23">
     <g id="line2d_60">
      <g>
       <use xlink:href="#m0365602c01" x="399.389239" y="243.433002" style="stroke: #000000; stroke-width: 0.8"/>
      </g>
     </g>
    </g>
    <g id="xtick_24">
     <g id="line2d_61">
      <g>
       <use xlink:href="#m0365602c01" x="450.180996" y="243.433002" style="stroke: #000000; stroke-width: 0.8"/>
      </g>
     </g>
    </g>
   </g>
   <g id="matplotlib.axis_12">
    <g id="ytick_14">
     <g id="line2d_62">
      <g>
       <use xlink:href="#m2e26bde07a" x="290.18696" y="234.755383" style="stroke: #000000; stroke-width: 0.8"/>
      </g>
     </g>
     <g id="text_22">
      <!-- $\mathdefault{−2}$ -->
      <g transform="translate(270.456881 238.214632) scale(0.1 -0.1)">
       <use xlink:href="#CMSY10-0" transform="scale(0.996264)"/>
       <use xlink:href="#CMR17-32" transform="translate(77.487468 0) scale(0.996264)"/>
      </g>
     </g>
    </g>
    <g id="ytick_15">
     <g id="line2d_63">
      <g>
       <use xlink:href="#m2e26bde07a" x="290.18696" y="212.471024" style="stroke: #000000; stroke-width: 0.8"/>
      </g>
     </g>
     <g id="text_23">
      <!-- $\mathdefault{0}$ -->
      <g transform="translate(278.205624 215.930273) scale(0.1 -0.1)">
       <use xlink:href="#CMR17-30" transform="scale(0.996264)"/>
      </g>
     </g>
    </g>
    <g id="ytick_16">
     <g id="line2d_64">
      <g>
       <use xlink:href="#m2e26bde07a" x="290.18696" y="190.186664" style="stroke: #000000; stroke-width: 0.8"/>
      </g>
     </g>
     <g id="text_24">
      <!-- $\mathdefault{2}$ -->
      <g transform="translate(278.205624 193.645913) scale(0.1 -0.1)">
       <use xlink:href="#CMR17-32" transform="scale(0.996264)"/>
      </g>
     </g>
    </g>
    <g id="text_25">
     <!-- $P_{3,2}$ -->
     <g transform="translate(263.606486 219.881406) rotate(-90) scale(0.1 -0.1)">
      <defs>
       <path id="CMMI12-50" d="M 1894 2023 
L 2970 2023 
C 3853 2023 4736 2673 4736 3401 
C 4736 3898 4314 4352 3507 4352 
L 1530 4352 
C 1408 4352 1350 4352 1350 4231 
C 1350 4167 1408 4167 1504 4167 
C 1894 4167 1894 4116 1894 4046 
C 1894 4034 1894 3995 1869 3899 
L 1005 472 
C 947 249 934 185 486 185 
C 365 185 301 185 301 70 
C 301 0 358 0 397 0 
C 518 0 646 0 768 0 
L 1517 0 
C 1638 0 1773 0 1894 0 
C 1946 0 2016 0 2016 121 
C 2016 185 1958 185 1862 185 
C 1478 185 1472 230 1472 293 
C 1472 325 1478 369 1485 401 
L 1894 2023 
z
M 2355 3930 
C 2413 4167 2438 4167 2688 4167 
L 3322 4167 
C 3802 4167 4198 4013 4198 3535 
C 4198 3369 4115 2827 3821 2534 
C 3712 2419 3405 2176 2822 2176 
L 1920 2176 
L 2355 3930 
z
" transform="scale(0.015625)"/>
      </defs>
      <use xlink:href="#CMMI12-50" transform="scale(0.996264)"/>
      <use xlink:href="#CMR17-33" transform="translate(62.877232 -14.943915) scale(0.697382)"/>
      <use xlink:href="#CMMI12-3b" transform="translate(94.860414 -14.943915) scale(0.697382)"/>
      <use xlink:href="#CMR17-32" transform="translate(113.828347 -14.943915) scale(0.697382)"/>
     </g>
    </g>
    <g id="text_26">
     <!-- $\times\mathdefault{10^{−6}}\mathdefault{+3.3385}$ -->
     <g transform="translate(290.18696 176.625057) scale(0.1 -0.1)">
      <defs>
       <path id="CMR17-36" d="M 678 2176 
C 678 3690 1395 4032 1811 4032 
C 1946 4032 2272 4009 2400 3776 
C 2298 3776 2106 3776 2106 3553 
C 2106 3381 2246 3323 2336 3323 
C 2394 3323 2566 3348 2566 3560 
C 2566 3954 2246 4179 1805 4179 
C 1043 4179 243 3390 243 1984 
C 243 253 966 -128 1478 -128 
C 2099 -128 2688 427 2688 1283 
C 2688 2081 2170 2662 1517 2662 
C 1126 2662 838 2407 678 1960 
L 678 2176 
z
M 1478 25 
C 691 25 691 1200 691 1436 
C 691 1896 909 2560 1504 2560 
C 1613 2560 1926 2560 2138 2120 
C 2253 1870 2253 1609 2253 1289 
C 2253 944 2253 690 2118 434 
C 1978 171 1773 25 1478 25 
z
" transform="scale(0.015625)"/>
       <path id="CMR17-38" d="M 1741 2264 
C 2144 2467 2554 2773 2554 3263 
C 2554 3841 1990 4179 1472 4179 
C 890 4179 378 3759 378 3180 
C 378 3021 416 2747 666 2505 
C 730 2442 998 2251 1171 2130 
C 883 1983 211 1634 211 934 
C 211 279 838 -128 1459 -128 
C 2144 -128 2720 362 2720 1010 
C 2720 1590 2330 1857 2074 2029 
L 1741 2264 
z
M 902 2822 
C 851 2854 595 3051 595 3351 
C 595 3739 998 4032 1459 4032 
C 1965 4032 2336 3676 2336 3262 
C 2336 2669 1670 2331 1638 2331 
C 1632 2331 1626 2331 1574 2370 
L 902 2822 
z
M 2080 1519 
C 2176 1449 2483 1240 2483 851 
C 2483 381 2010 25 1472 25 
C 890 25 448 438 448 940 
C 448 1443 838 1862 1280 2060 
L 2080 1519 
z
" transform="scale(0.015625)"/>
      </defs>
      <use xlink:href="#CMSY10-2" transform="scale(0.996264)"/>
      <use xlink:href="#CMR17-31" transform="translate(77.487468 0) scale(0.996264)"/>
      <use xlink:href="#CMR17-30" transform="translate(123.177945 0) scale(0.996264)"/>
      <use xlink:href="#CMSY10-0" transform="translate(168.868422 36.153639) scale(0.697382)"/>
      <use xlink:href="#CMR17-36" transform="translate(223.109415 36.153639) scale(0.697382)"/>
      <use xlink:href="#CMR17-2b" transform="translate(277.729936 0) scale(0.996264)"/>
      <use xlink:href="#CMR17-33" transform="translate(371.583931 0) scale(0.996264)"/>
      <use xlink:href="#CMMI12-3a" transform="translate(417.274409 0) scale(0.996264)"/>
      <use xlink:href="#CMR17-33" transform="translate(444.371586 0) scale(0.996264)"/>
      <use xlink:href="#CMR17-33" transform="translate(490.062063 0) scale(0.996264)"/>
      <use xlink:href="#CMR17-38" transform="translate(535.75254 0) scale(0.996264)"/>
      <use xlink:href="#CMR17-35" transform="translate(581.443017 0) scale(0.996264)"/>
     </g>
    </g>
   </g>
   <g id="line2d_65">
    <path d="M 297.805723 182.525418 
L 298.313641 190.02909 
L 299.329476 200.466144 
L 300.345311 208.655606 
L 301.361146 213.515606 
L 303.392817 219.160463 
L 304.408652 221.036665 
L 306.94824 224.006121 
L 307.964075 224.792551 
L 308.97991 225.016871 
L 309.487828 225.520274 
L 310.503663 226.037155 
L 311.01158 226.716982 
L 312.027415 227.406431 
L 313.551168 229.330959 
L 314.059086 229.264264 
L 315.074921 229.898171 
L 315.582838 229.99797 
L 316.598674 230.451434 
L 318.122426 230.944021 
L 319.138261 231.493122 
L 320.662014 232.158254 
L 322.185767 233.099241 
L 324.217437 233.510181 
L 325.233272 233.964578 
L 328.280778 234.830678 
L 329.804531 235.097651 
L 330.312448 235.106309 
L 330.820366 235.286322 
L 332.344118 235.461375 
L 332.852036 235.703065 
L 333.359954 235.756629 
L 333.867871 235.967689 
L 335.899542 236.356412 
L 337.423294 237.036509 
L 339.454965 237.523627 
L 340.978717 237.66176 
L 343.518305 238.003613 
L 345.549975 238.042506 
L 346.565811 238.215152 
L 348.089563 238.382616 
L 350.121234 238.508063 
L 351.137069 238.614821 
L 362.311256 239.357082 
L 364.850843 239.468614 
L 366.882514 239.633638 
L 374.501277 239.865432 
L 376.02503 239.908285 
L 382.120041 240.026882 
L 385.675464 240.062241 
L 398.881321 240.263512 
L 450.180996 240.532641 
L 450.180996 240.532641 
" clip-path="url(#pcf9476bd76)" style="fill: none; stroke: #000000; stroke-width: 0.6; stroke-linecap: square"/>
   </g>
   <g id="patch_28">
    <path d="M 290.18696 243.433002 
L 290.18696 179.625057 
" style="fill: none; stroke: #000000; stroke-width: 0.8; stroke-linejoin: miter; stroke-linecap: square"/>
   </g>
   <g id="patch_29">
    <path d="M 457.79976 243.433002 
L 457.79976 179.625057 
" style="fill: none; stroke: #000000; stroke-width: 0.8; stroke-linejoin: miter; stroke-linecap: square"/>
   </g>
   <g id="patch_30">
    <path d="M 290.18696 243.433002 
L 457.79976 243.433002 
" style="fill: none; stroke: #000000; stroke-width: 0.8; stroke-linejoin: miter; stroke-linecap: square"/>
   </g>
   <g id="patch_31">
    <path d="M 290.18696 179.625057 
L 457.79976 179.625057 
" style="fill: none; stroke: #000000; stroke-width: 0.8; stroke-linejoin: miter; stroke-linecap: square"/>
   </g>
  </g>
  <g id="axes_7">
   <g id="patch_32">
    <path d="M 58.278745 326.744083 
L 225.891546 326.744083 
L 225.891546 262.936138 
L 58.278745 262.936138 
z
" style="fill: #ffffff"/>
   </g>
   <g id="matplotlib.axis_13">
    <g id="xtick_25">
     <g id="line2d_66">
      <g>
       <use xlink:href="#m0365602c01" x="65.897509" y="326.744083" style="stroke: #000000; stroke-width: 0.8"/>
      </g>
     </g>
     <g id="text_27">
      <!-- $\mathdefault{0}$ -->
      <g transform="translate(63.406841 340.662582) scale(0.1 -0.1)">
       <use xlink:href="#CMR17-30" transform="scale(0.996264)"/>
      </g>
     </g>
    </g>
    <g id="xtick_26">
     <g id="line2d_67">
      <g>
       <use xlink:href="#m0365602c01" x="116.689267" y="326.744083" style="stroke: #000000; stroke-width: 0.8"/>
      </g>
     </g>
     <g id="text_28">
      <!-- $\mathdefault{100}$ -->
      <g transform="translate(109.217264 340.662582) scale(0.1 -0.1)">
       <use xlink:href="#CMR17-31" transform="scale(0.996264)"/>
       <use xlink:href="#CMR17-30" transform="translate(45.690477 0) scale(0.996264)"/>
       <use xlink:href="#CMR17-30" transform="translate(91.380954 0) scale(0.996264)"/>
      </g>
     </g>
    </g>
    <g id="xtick_27">
     <g id="line2d_68">
      <g>
       <use xlink:href="#m0365602c01" x="167.481024" y="326.744083" style="stroke: #000000; stroke-width: 0.8"/>
      </g>
     </g>
     <g id="text_29">
      <!-- $\mathdefault{200}$ -->
      <g transform="translate(160.009021 340.662582) scale(0.1 -0.1)">
       <use xlink:href="#CMR17-32" transform="scale(0.996264)"/>
       <use xlink:href="#CMR17-30" transform="translate(45.690477 0) scale(0.996264)"/>
       <use xlink:href="#CMR17-30" transform="translate(91.380954 0) scale(0.996264)"/>
      </g>
     </g>
    </g>
    <g id="xtick_28">
     <g id="line2d_69">
      <g>
       <use xlink:href="#m0365602c01" x="218.272782" y="326.744083" style="stroke: #000000; stroke-width: 0.8"/>
      </g>
     </g>
     <g id="text_30">
      <!-- $\mathdefault{300}$ -->
      <g transform="translate(210.800779 340.662582) scale(0.1 -0.1)">
       <use xlink:href="#CMR17-33" transform="scale(0.996264)"/>
       <use xlink:href="#CMR17-30" transform="translate(45.690477 0) scale(0.996264)"/>
       <use xlink:href="#CMR17-30" transform="translate(91.380954 0) scale(0.996264)"/>
      </g>
     </g>
    </g>
   </g>
   <g id="matplotlib.axis_14">
    <g id="ytick_17">
     <g id="line2d_70">
      <g>
       <use xlink:href="#m2e26bde07a" x="58.278745" y="309.756766" style="stroke: #000000; stroke-width: 0.8"/>
      </g>
     </g>
     <g id="text_31">
      <!-- $\mathdefault{−2}$ -->
      <g transform="translate(38.548666 313.216016) scale(0.1 -0.1)">
       <use xlink:href="#CMSY10-0" transform="scale(0.996264)"/>
       <use xlink:href="#CMR17-32" transform="translate(77.487468 0) scale(0.996264)"/>
      </g>
     </g>
    </g>
    <g id="ytick_18">
     <g id="line2d_71">
      <g>
       <use xlink:href="#m2e26bde07a" x="58.278745" y="268.153988" style="stroke: #000000; stroke-width: 0.8"/>
      </g>
     </g>
     <g id="text_32">
      <!-- $\mathdefault{0}$ -->
      <g transform="translate(46.29741 271.613237) scale(0.1 -0.1)">
       <use xlink:href="#CMR17-30" transform="scale(0.996264)"/>
      </g>
     </g>
    </g>
    <g id="text_33">
     <!-- $f_3$ -->
     <g transform="translate(32.611488 299.264513) rotate(-90) scale(0.1 -0.1)">
      <defs>
       <path id="CMMI12-66" d="M 2854 2566 
C 2982 2566 3034 2566 3034 2688 
C 3034 2752 2982 2752 2867 2752 
L 2349 2752 
C 2470 3429 2560 3897 2611 4107 
C 2650 4265 2784 4416 2950 4416 
C 3085 4416 3219 4358 3283 4298 
C 3034 4272 2957 4082 2957 3969 
C 2957 3837 3053 3759 3174 3759 
C 3302 3759 3494 3870 3494 4119 
C 3494 4393 3226 4544 2944 4544 
C 2669 4544 2400 4334 2272 4078 
C 2157 3848 2093 3611 1946 2752 
L 1517 2752 
C 1395 2752 1331 2752 1331 2637 
C 1331 2566 1370 2566 1498 2566 
L 1907 2566 
C 1792 1976 1530 542 1382 -137 
C 1274 -689 1178 -1152 858 -1152 
C 838 -1152 653 -1152 538 -1031 
C 864 -1005 864 -726 864 -720 
C 864 -593 768 -517 646 -517 
C 518 -517 326 -625 326 -867 
C 326 -1140 608 -1280 858 -1280 
C 1510 -1280 1779 -118 1850 199 
C 1965 688 2278 2376 2310 2566 
L 2854 2566 
z
" transform="scale(0.015625)"/>
      </defs>
      <use xlink:href="#CMMI12-66" transform="scale(0.996264)"/>
      <use xlink:href="#CMR17-33" transform="translate(48.083238 -14.943915) scale(0.697382)"/>
     </g>
    </g>
    <g id="text_34">
     <!-- $\times\mathdefault{10^{−5}}\mathdefault{}$ -->
     <g transform="translate(58.278745 259.936138) scale(0.1 -0.1)">
      <use xlink:href="#CMSY10-2" transform="scale(0.996264)"/>
      <use xlink:href="#CMR17-31" transform="translate(77.487468 0) scale(0.996264)"/>
      <use xlink:href="#CMR17-30" transform="translate(123.177945 0) scale(0.996264)"/>
      <use xlink:href="#CMSY10-0" transform="translate(168.868422 36.153639) scale(0.697382)"/>
      <use xlink:href="#CMR17-35" transform="translate(223.109415 36.153639) scale(0.697382)"/>
     </g>
    </g>
   </g>
   <g id="line2d_72">
    <path d="M 65.897509 268.153988 
L 66.405426 268.754689 
L 67.421262 269.417495 
L 68.437097 269.633307 
L 70.468767 269.533979 
L 73.516272 269.213022 
L 95.864646 267.466821 
L 119.736772 266.500311 
L 149.195991 266.046165 
L 181.194799 265.880889 
L 218.272782 265.836499 
L 218.272782 265.836499 
" clip-path="url(#p1142b2e049)" style="fill: none; stroke: #000000; stroke-width: 0.6; stroke-linecap: square"/>
   </g>
   <g id="line2d_73">
    <path d="M 65.897509 268.153988 
L 66.913344 267.678559 
L 68.437097 267.261652 
L 70.976685 267.003251 
L 74.532108 266.873551 
L 79.103366 266.827455 
L 93.325058 266.777538 
L 196.432326 266.853984 
L 218.272782 266.855101 
L 218.272782 266.855101 
" clip-path="url(#p1142b2e049)" style="fill: none; stroke: #000000; stroke-width: 0.6; stroke-linecap: square"/>
   </g>
   <g id="line2d_74">
    <path d="M 65.897509 268.153988 
L 66.405426 274.207976 
L 67.421262 282.740925 
L 68.437097 288.814805 
L 69.452932 292.703591 
L 70.468767 295.496757 
L 71.484602 297.729616 
L 75.040025 303.656448 
L 78.087531 306.751183 
L 81.135036 309.60953 
L 82.150871 310.236435 
L 85.198377 311.808869 
L 86.214212 312.461204 
L 87.737965 313.399271 
L 88.245882 313.663768 
L 89.261717 313.998094 
L 93.325058 315.695845 
L 96.372563 316.473514 
L 101.451739 317.693453 
L 103.991327 318.175399 
L 105.51508 318.541722 
L 108.562585 319.033995 
L 110.594256 319.350499 
L 113.641761 319.79915 
L 115.165514 320.064058 
L 130.910959 321.313847 
L 136.498052 321.625846 
L 154.275167 322.286851 
L 185.258139 322.712147 
L 218.272782 322.830215 
L 218.272782 322.830215 
" clip-path="url(#p1142b2e049)" style="fill: none; stroke: #000000; stroke-width: 0.6; stroke-linecap: square"/>
   </g>
   <g id="line2d_75">
    <path d="M 65.897509 268.153988 
L 66.405426 274.263542 
L 67.421262 282.888479 
L 68.437097 289.040377 
L 69.452932 292.964413 
L 70.468767 295.794509 
L 71.484602 298.049519 
L 75.040025 304.08899 
L 77.071696 306.423898 
L 77.579613 307.013542 
L 78.087531 307.316034 
L 81.642954 310.656386 
L 85.198377 312.546635 
L 86.214212 313.20853 
L 87.230047 313.860272 
L 88.245882 314.434252 
L 89.261717 314.786685 
L 90.78547 315.500863 
L 91.293388 315.590055 
L 93.325058 316.534309 
L 95.864646 317.215182 
L 101.959657 318.691007 
L 105.51508 319.49548 
L 111.102173 320.38396 
L 112.625926 320.675703 
L 113.641761 320.77245 
L 115.165514 321.04171 
L 129.895124 322.263104 
L 133.958464 322.497788 
L 142.593063 322.904643 
L 154.783085 323.30219 
L 163.925601 323.478994 
L 194.908573 323.781095 
L 218.272782 323.843722 
L 218.272782 323.843722 
" clip-path="url(#p1142b2e049)" style="fill: none; stroke: #000000; stroke-width: 0.6; stroke-linecap: square"/>
   </g>
   <g id="line2d_76">
    <path d="M 65.897509 268.153988 
L 66.405426 272.180148 
L 67.421262 277.943306 
L 68.437097 282.406489 
L 69.452932 285.3954 
L 70.468767 287.660353 
L 71.484602 289.562462 
L 75.040025 294.994334 
L 75.547943 295.43991 
L 76.563778 296.797857 
L 77.579613 297.927229 
L 78.087531 298.229588 
L 80.119201 300.183772 
L 81.135036 301.047308 
L 82.150871 301.741202 
L 85.198377 303.387003 
L 85.706294 303.838717 
L 87.230047 304.782804 
L 88.245882 305.400086 
L 89.261717 305.767765 
L 90.78547 306.538119 
L 91.293388 306.64383 
L 93.325058 307.651375 
L 96.372563 308.544637 
L 101.451739 309.993683 
L 103.48341 310.394635 
L 105.51508 310.952025 
L 111.102173 312.008104 
L 112.625926 312.391585 
L 113.641761 312.53022 
L 115.165514 312.842828 
L 118.213019 313.174405 
L 120.24469 313.453839 
L 123.292195 313.810059 
L 125.831783 314.008352 
L 127.355536 314.137103 
L 143.100981 315.196768 
L 151.735579 315.594813 
L 166.973107 315.985655 
L 218.272782 316.381086 
L 218.272782 316.381086 
" clip-path="url(#p1142b2e049)" style="fill: none; stroke: #000000; stroke-width: 0.6; stroke-linecap: square"/>
   </g>
   <g id="patch_33">
    <path d="M 58.278745 326.744083 
L 58.278745 262.936138 
" style="fill: none; stroke: #000000; stroke-width: 0.8; stroke-linejoin: miter; stroke-linecap: square"/>
   </g>
   <g id="patch_34">
    <path d="M 225.891546 326.744083 
L 225.891546 262.936138 
" style="fill: none; stroke: #000000; stroke-width: 0.8; stroke-linejoin: miter; stroke-linecap: square"/>
   </g>
   <g id="patch_35">
    <path d="M 58.278745 326.744083 
L 225.891546 326.744083 
" style="fill: none; stroke: #000000; stroke-width: 0.8; stroke-linejoin: miter; stroke-linecap: square"/>
   </g>
   <g id="patch_36">
    <path d="M 58.278745 262.936138 
L 225.891546 262.936138 
" style="fill: none; stroke: #000000; stroke-width: 0.8; stroke-linejoin: miter; stroke-linecap: square"/>
   </g>
  </g>
  <g id="axes_8">
   <g id="patch_37">
    <path d="M 290.18696 326.744083 
L 457.79976 326.744083 
L 457.79976 262.936138 
L 290.18696 262.936138 
z
" style="fill: #ffffff"/>
   </g>
   <g id="matplotlib.axis_15">
    <g id="xtick_29">
     <g id="line2d_77">
      <g>
       <use xlink:href="#m0365602c01" x="297.805723" y="326.744083" style="stroke: #000000; stroke-width: 0.8"/>
      </g>
     </g>
     <g id="text_35">
      <!-- $\mathdefault{0}$ -->
      <g transform="translate(295.315056 340.662582) scale(0.1 -0.1)">
       <use xlink:href="#CMR17-30" transform="scale(0.996264)"/>
      </g>
     </g>
    </g>
    <g id="xtick_30">
     <g id="line2d_78">
      <g>
       <use xlink:href="#m0365602c01" x="348.597481" y="326.744083" style="stroke: #000000; stroke-width: 0.8"/>
      </g>
     </g>
     <g id="text_36">
      <!-- $\mathdefault{100}$ -->
      <g transform="translate(341.125478 340.662582) scale(0.1 -0.1)">
       <use xlink:href="#CMR17-31" transform="scale(0.996264)"/>
       <use xlink:href="#CMR17-30" transform="translate(45.690477 0) scale(0.996264)"/>
       <use xlink:href="#CMR17-30" transform="translate(91.380954 0) scale(0.996264)"/>
      </g>
     </g>
    </g>
    <g id="xtick_31">
     <g id="line2d_79">
      <g>
       <use xlink:href="#m0365602c01" x="399.389239" y="326.744083" style="stroke: #000000; stroke-width: 0.8"/>
      </g>
     </g>
     <g id="text_37">
      <!-- $\mathdefault{200}$ -->
      <g transform="translate(391.917236 340.662582) scale(0.1 -0.1)">
       <use xlink:href="#CMR17-32" transform="scale(0.996264)"/>
       <use xlink:href="#CMR17-30" transform="translate(45.690477 0) scale(0.996264)"/>
       <use xlink:href="#CMR17-30" transform="translate(91.380954 0) scale(0.996264)"/>
      </g>
     </g>
    </g>
    <g id="xtick_32">
     <g id="line2d_80">
      <g>
       <use xlink:href="#m0365602c01" x="450.180996" y="326.744083" style="stroke: #000000; stroke-width: 0.8"/>
      </g>
     </g>
     <g id="text_38">
      <!-- $\mathdefault{300}$ -->
      <g transform="translate(442.708993 340.662582) scale(0.1 -0.1)">
       <use xlink:href="#CMR17-33" transform="scale(0.996264)"/>
       <use xlink:href="#CMR17-30" transform="translate(45.690477 0) scale(0.996264)"/>
       <use xlink:href="#CMR17-30" transform="translate(91.380954 0) scale(0.996264)"/>
      </g>
     </g>
    </g>
   </g>
   <g id="matplotlib.axis_16">
    <g id="ytick_19">
     <g id="line2d_81">
      <g>
       <use xlink:href="#m2e26bde07a" x="290.18696" y="316.463174" style="stroke: #000000; stroke-width: 0.8"/>
      </g>
     </g>
     <g id="text_39">
      <!-- $\mathdefault{0.073155}$ -->
      <g transform="translate(245.550204 319.922423) scale(0.1 -0.1)">
       <use xlink:href="#CMR17-30" transform="scale(0.996264)"/>
       <use xlink:href="#CMMI12-3a" transform="translate(45.690477 0) scale(0.996264)"/>
       <use xlink:href="#CMR17-30" transform="translate(72.787654 0) scale(0.996264)"/>
       <use xlink:href="#CMR17-37" transform="translate(118.478131 0) scale(0.996264)"/>
       <use xlink:href="#CMR17-33" transform="translate(164.168608 0) scale(0.996264)"/>
       <use xlink:href="#CMR17-31" transform="translate(209.859086 0) scale(0.996264)"/>
       <use xlink:href="#CMR17-35" transform="translate(255.549563 0) scale(0.996264)"/>
       <use xlink:href="#CMR17-35" transform="translate(301.24004 0) scale(0.996264)"/>
      </g>
     </g>
    </g>
    <g id="ytick_20">
     <g id="line2d_82">
      <g>
       <use xlink:href="#m2e26bde07a" x="290.18696" y="296.944352" style="stroke: #000000; stroke-width: 0.8"/>
      </g>
     </g>
     <g id="text_40">
      <!-- $\mathdefault{0.073160}$ -->
      <g transform="translate(245.550204 300.403601) scale(0.1 -0.1)">
       <use xlink:href="#CMR17-30" transform="scale(0.996264)"/>
       <use xlink:href="#CMMI12-3a" transform="translate(45.690477 0) scale(0.996264)"/>
       <use xlink:href="#CMR17-30" transform="translate(72.787654 0) scale(0.996264)"/>
       <use xlink:href="#CMR17-37" transform="translate(118.478131 0) scale(0.996264)"/>
       <use xlink:href="#CMR17-33" transform="translate(164.168608 0) scale(0.996264)"/>
       <use xlink:href="#CMR17-31" transform="translate(209.859086 0) scale(0.996264)"/>
       <use xlink:href="#CMR17-36" transform="translate(255.549563 0) scale(0.996264)"/>
       <use xlink:href="#CMR17-30" transform="translate(301.24004 0) scale(0.996264)"/>
      </g>
     </g>
    </g>
    <g id="ytick_21">
     <g id="line2d_83">
      <g>
       <use xlink:href="#m2e26bde07a" x="290.18696" y="277.425529" style="stroke: #000000; stroke-width: 0.8"/>
      </g>
     </g>
     <g id="text_41">
      <!-- $\mathdefault{0.073165}$ -->
      <g transform="translate(245.550204 280.884778) scale(0.1 -0.1)">
       <use xlink:href="#CMR17-30" transform="scale(0.996264)"/>
       <use xlink:href="#CMMI12-3a" transform="translate(45.690477 0) scale(0.996264)"/>
       <use xlink:href="#CMR17-30" transform="translate(72.787654 0) scale(0.996264)"/>
       <use xlink:href="#CMR17-37" transform="translate(118.478131 0) scale(0.996264)"/>
       <use xlink:href="#CMR17-33" transform="translate(164.168608 0) scale(0.996264)"/>
       <use xlink:href="#CMR17-31" transform="translate(209.859086 0) scale(0.996264)"/>
       <use xlink:href="#CMR17-36" transform="translate(255.549563 0) scale(0.996264)"/>
       <use xlink:href="#CMR17-35" transform="translate(301.24004 0) scale(0.996264)"/>
      </g>
     </g>
    </g>
    <g id="text_42">
     <!-- $P_{3,2}$ -->
     <g transform="translate(238.699809 303.192487) rotate(-90) scale(0.1 -0.1)">
      <use xlink:href="#CMMI12-50" transform="scale(0.996264)"/>
      <use xlink:href="#CMR17-33" transform="translate(62.877232 -14.943915) scale(0.697382)"/>
      <use xlink:href="#CMMI12-3b" transform="translate(94.860414 -14.943915) scale(0.697382)"/>
      <use xlink:href="#CMR17-32" transform="translate(113.828347 -14.943915) scale(0.697382)"/>
     </g>
    </g>
   </g>
   <g id="line2d_84">
    <path d="M 297.805723 323.843722 
L 298.313641 313.877647 
L 299.329476 302.382424 
L 299.837394 298.505085 
L 300.345311 293.120252 
L 301.869064 284.939759 
L 302.376981 283.526382 
L 302.884899 281.503079 
L 304.408652 277.916841 
L 304.916569 277.471982 
L 305.424487 276.694963 
L 305.932404 276.305567 
L 306.440322 276.196081 
L 306.94824 275.697109 
L 307.456157 275.815736 
L 307.964075 275.279021 
L 308.471992 275.096651 
L 308.97991 275.202903 
L 309.487828 275.028468 
L 309.995745 275.089491 
L 311.01158 273.902221 
L 313.043251 272.905875 
L 313.551168 272.69668 
L 314.059086 272.770407 
L 314.567003 272.616658 
L 315.074921 272.909986 
L 315.582838 272.43828 
L 316.090756 272.393071 
L 317.106591 271.801189 
L 317.614509 271.223962 
L 318.630344 270.812262 
L 319.646179 270.605587 
L 320.154097 270.116199 
L 320.662014 270.305782 
L 321.169932 270.166842 
L 322.185767 269.521267 
L 322.693685 269.148741 
L 323.201602 269.325876 
L 324.725355 268.977384 
L 325.233272 268.674059 
L 326.249108 268.809888 
L 327.264943 268.521588 
L 327.77286 268.636742 
L 330.820366 267.993343 
L 333.867871 267.909621 
L 334.375789 267.653927 
L 335.391624 267.756439 
L 337.423294 267.373655 
L 337.931212 267.545406 
L 339.454965 267.287175 
L 339.962882 267.314653 
L 341.486635 267.042921 
L 342.50247 267.243746 
L 343.010388 267.217184 
L 344.53414 266.887714 
L 346.565811 266.829798 
L 349.613316 266.601168 
L 350.629151 266.685464 
L 354.184574 266.508441 
L 354.692492 266.382977 
L 356.216245 266.40525 
L 359.771668 266.28715 
L 361.29542 266.31242 
L 361.803338 266.230448 
L 362.819173 266.292251 
L 366.374596 266.269731 
L 367.898349 266.191955 
L 371.961689 266.205641 
L 373.485442 266.226898 
L 379.580453 266.152745 
L 382.120041 266.172249 
L 383.643794 266.094313 
L 386.183382 266.09183 
L 389.738805 266.032323 
L 413.610931 265.929069 
L 426.30887 265.861968 
L 445.609738 265.847257 
L 450.180996 265.848442 
L 450.180996 265.848442 
" clip-path="url(#pc0ffc8f889)" style="fill: none; stroke: #000000; stroke-width: 0.6; stroke-linecap: square"/>
   </g>
   <g id="patch_38">
    <path d="M 290.18696 326.744083 
L 290.18696 262.936138 
" style="fill: none; stroke: #000000; stroke-width: 0.8; stroke-linejoin: miter; stroke-linecap: square"/>
   </g>
   <g id="patch_39">
    <path d="M 457.79976 326.744083 
L 457.79976 262.936138 
" style="fill: none; stroke: #000000; stroke-width: 0.8; stroke-linejoin: miter; stroke-linecap: square"/>
   </g>
   <g id="patch_40">
    <path d="M 290.18696 326.744083 
L 457.79976 326.744083 
" style="fill: none; stroke: #000000; stroke-width: 0.8; stroke-linejoin: miter; stroke-linecap: square"/>
   </g>
   <g id="patch_41">
    <path d="M 290.18696 262.936138 
L 457.79976 262.936138 
" style="fill: none; stroke: #000000; stroke-width: 0.8; stroke-linejoin: miter; stroke-linecap: square"/>
   </g>
  </g>
 </g>
 <defs>
  <clipPath id="pd4d4c6fd4c">
   <rect x="58.278745" y="13.002895" width="167.6128" height="63.807945"/>
  </clipPath>
  <clipPath id="pcddf379b65">
   <rect x="290.18696" y="13.002895" width="167.6128" height="63.807945"/>
  </clipPath>
  <clipPath id="p6284af74d4">
   <rect x="58.278745" y="96.313976" width="167.6128" height="63.807945"/>
  </clipPath>
  <clipPath id="pe830e806b4">
   <rect x="290.18696" y="96.313976" width="167.6128" height="63.807945"/>
  </clipPath>
  <clipPath id="p794e16e426">
   <rect x="58.278745" y="179.625057" width="167.6128" height="63.807945"/>
  </clipPath>
  <clipPath id="pcf9476bd76">
   <rect x="290.18696" y="179.625057" width="167.6128" height="63.807945"/>
  </clipPath>
  <clipPath id="p1142b2e049">
   <rect x="58.278745" y="262.936138" width="167.6128" height="63.807945"/>
  </clipPath>
  <clipPath id="pc0ffc8f889">
   <rect x="290.18696" y="262.936138" width="167.6128" height="63.807945"/>
  </clipPath>
 </defs>
</svg>
