<?xml version="1.0" encoding="utf-8" standalone="no"?>
<!DOCTYPE svg PUBLIC "-//W3C//DTD SVG 1.1//EN"
  "http://www.w3.org/Graphics/SVG/1.1/DTD/svg11.dtd">
<svg xmlns:xlink="http://www.w3.org/1999/xlink" width="460.8pt" height="345.6pt" viewBox="0 0 460.8 345.6" xmlns="http://www.w3.org/2000/svg" version="1.1">
 <metadata>
  <rdf:RDF xmlns:dc="http://purl.org/dc/elements/1.1/" xmlns:cc="http://creativecommons.org/ns#" xmlns:rdf="http://www.w3.org/1999/02/22-rdf-syntax-ns#">
   <cc:Work>
    <dc:type rdf:resource="http://purl.org/dc/dcmitype/StillImage"/>
    <dc:date>2023-09-04T13:27:06.733945</dc:date>
    <dc:format>image/svg+xml</dc:format>
    <dc:creator>
     <cc:Agent>
      <dc:title>Matplotlib v3.7.1, https://matplotlib.org/</dc:title>
     </cc:Agent>
    </dc:creator>
   </cc:Work>
  </rdf:RDF>
 </metadata>
 <defs>
  <style type="text/css">*{stroke-linejoin: round; stroke-linecap: butt}</style>
 </defs>
 <g id="figure_1">
  <g id="patch_1">
   <path d="M 0 345.6 
L 460.8 345.6 
L 460.8 0 
L 0 0 
z
" style="fill: #ffffff"/>
  </g>
  <g id="axes_1">
   <g id="patch_2">
    <path d="M 49.118577 153.694083 
L 457.79976 153.694083 
L 457.79976 3.00024 
L 49.118577 3.00024 
z
" style="fill: #ffffff"/>
   </g>
   <g id="matplotlib.axis_1">
    <g id="xtick_1">
     <g id="line2d_1">
      <defs>
       <path id="m946e6bba5b" d="M 0 0 
L 0 3.5 
" style="stroke: #000000; stroke-width: 0.8"/>
      </defs>
      <g>
       <use xlink:href="#m946e6bba5b" x="67.694994" y="153.694083" style="stroke: #000000; stroke-width: 0.8"/>
      </g>
     </g>
    </g>
    <g id="xtick_2">
     <g id="line2d_2">
      <g>
       <use xlink:href="#m946e6bba5b" x="142.000664" y="153.694083" style="stroke: #000000; stroke-width: 0.8"/>
      </g>
     </g>
    </g>
    <g id="xtick_3">
     <g id="line2d_3">
      <g>
       <use xlink:href="#m946e6bba5b" x="216.306334" y="153.694083" style="stroke: #000000; stroke-width: 0.8"/>
      </g>
     </g>
    </g>
    <g id="xtick_4">
     <g id="line2d_4">
      <g>
       <use xlink:href="#m946e6bba5b" x="290.612003" y="153.694083" style="stroke: #000000; stroke-width: 0.8"/>
      </g>
     </g>
    </g>
    <g id="xtick_5">
     <g id="line2d_5">
      <g>
       <use xlink:href="#m946e6bba5b" x="364.917673" y="153.694083" style="stroke: #000000; stroke-width: 0.8"/>
      </g>
     </g>
    </g>
    <g id="xtick_6">
     <g id="line2d_6">
      <g>
       <use xlink:href="#m946e6bba5b" x="439.223343" y="153.694083" style="stroke: #000000; stroke-width: 0.8"/>
      </g>
     </g>
    </g>
   </g>
   <g id="matplotlib.axis_2">
    <g id="ytick_1">
     <g id="line2d_7">
      <defs>
       <path id="m308f9951ae" d="M 0 0 
L -3.5 0 
" style="stroke: #000000; stroke-width: 0.8"/>
      </defs>
      <g>
       <use xlink:href="#m308f9951ae" x="49.118577" y="128.387269" style="stroke: #000000; stroke-width: 0.8"/>
      </g>
     </g>
     <g id="text_1">
      <!-- $\mathdefault{−0.10}$ -->
      <g transform="translate(16.658419 131.846518) scale(0.1 -0.1)">
       <defs>
        <path id="CMSY10-0" d="M 4218 1472 
C 4326 1472 4442 1472 4442 1600 
C 4442 1728 4326 1728 4218 1728 
L 755 1728 
C 646 1728 531 1728 531 1600 
C 531 1472 646 1472 755 1472 
L 4218 1472 
z
" transform="scale(0.015625)"/>
        <path id="CMR17-30" d="M 2688 2025 
C 2688 2416 2682 3080 2413 3591 
C 2176 4039 1798 4198 1466 4198 
C 1158 4198 768 4058 525 3597 
C 269 3118 243 2524 243 2025 
C 243 1661 250 1106 448 619 
C 723 -39 1216 -128 1466 -128 
C 1760 -128 2208 -7 2470 600 
C 2662 1042 2688 1559 2688 2025 
z
M 1466 -26 
C 1056 -26 813 325 723 812 
C 653 1188 653 1738 653 2096 
C 653 2588 653 2997 736 3387 
C 858 3929 1216 4096 1466 4096 
C 1728 4096 2067 3923 2189 3400 
C 2272 3036 2278 2607 2278 2096 
C 2278 1680 2278 1169 2202 792 
C 2067 95 1690 -26 1466 -26 
z
" transform="scale(0.015625)"/>
        <path id="CMMI12-3a" d="M 1178 307 
C 1178 492 1024 619 870 619 
C 685 619 557 466 557 313 
C 557 128 710 0 864 0 
C 1050 0 1178 153 1178 307 
z
" transform="scale(0.015625)"/>
        <path id="CMR17-31" d="M 1702 4058 
C 1702 4192 1696 4192 1606 4192 
C 1357 3916 979 3827 621 3827 
C 602 3827 570 3827 563 3808 
C 557 3795 557 3782 557 3648 
C 755 3648 1088 3686 1344 3839 
L 1344 461 
C 1344 236 1331 160 781 160 
L 589 160 
L 589 0 
C 896 0 1216 0 1523 0 
C 1830 0 2150 0 2458 0 
L 2458 160 
L 2266 160 
C 1715 160 1702 230 1702 458 
L 1702 4058 
z
" transform="scale(0.015625)"/>
       </defs>
       <use xlink:href="#CMSY10-0" transform="scale(0.996264)"/>
       <use xlink:href="#CMR17-30" transform="translate(77.487468 0) scale(0.996264)"/>
       <use xlink:href="#CMMI12-3a" transform="translate(123.177945 0) scale(0.996264)"/>
       <use xlink:href="#CMR17-31" transform="translate(150.275122 0) scale(0.996264)"/>
       <use xlink:href="#CMR17-30" transform="translate(195.965599 0) scale(0.996264)"/>
      </g>
     </g>
    </g>
    <g id="ytick_2">
     <g id="line2d_8">
      <g>
       <use xlink:href="#m308f9951ae" x="49.118577" y="98.752942" style="stroke: #000000; stroke-width: 0.8"/>
      </g>
     </g>
     <g id="text_2">
      <!-- $\mathdefault{−0.05}$ -->
      <g transform="translate(16.658419 102.212191) scale(0.1 -0.1)">
       <defs>
        <path id="CMR17-35" d="M 730 3692 
C 794 3666 1056 3584 1325 3584 
C 1920 3584 2246 3911 2432 4100 
C 2432 4157 2432 4192 2394 4192 
C 2387 4192 2374 4192 2323 4163 
C 2099 4058 1837 3973 1517 3973 
C 1325 3973 1037 3999 723 4139 
C 653 4171 640 4171 634 4171 
C 602 4171 595 4164 595 4037 
L 595 2203 
C 595 2089 595 2057 659 2057 
C 691 2057 704 2070 736 2114 
C 941 2401 1222 2522 1542 2522 
C 1766 2522 2246 2382 2246 1289 
C 2246 1085 2246 715 2054 421 
C 1894 159 1645 25 1370 25 
C 947 25 518 320 403 814 
C 429 807 480 795 506 795 
C 589 795 749 840 749 1038 
C 749 1210 627 1280 506 1280 
C 358 1280 262 1190 262 1011 
C 262 454 704 -128 1382 -128 
C 2042 -128 2669 440 2669 1264 
C 2669 2030 2170 2624 1549 2624 
C 1222 2624 947 2503 730 2274 
L 730 3692 
z
" transform="scale(0.015625)"/>
       </defs>
       <use xlink:href="#CMSY10-0" transform="scale(0.996264)"/>
       <use xlink:href="#CMR17-30" transform="translate(77.487468 0) scale(0.996264)"/>
       <use xlink:href="#CMMI12-3a" transform="translate(123.177945 0) scale(0.996264)"/>
       <use xlink:href="#CMR17-30" transform="translate(150.275122 0) scale(0.996264)"/>
       <use xlink:href="#CMR17-35" transform="translate(195.965599 0) scale(0.996264)"/>
      </g>
     </g>
    </g>
    <g id="ytick_3">
     <g id="line2d_9">
      <g>
       <use xlink:href="#m308f9951ae" x="49.118577" y="69.118614" style="stroke: #000000; stroke-width: 0.8"/>
      </g>
     </g>
     <g id="text_3">
      <!-- $\mathdefault{0.00}$ -->
      <g transform="translate(24.407163 72.577864) scale(0.1 -0.1)">
       <use xlink:href="#CMR17-30" transform="scale(0.996264)"/>
       <use xlink:href="#CMMI12-3a" transform="translate(45.690477 0) scale(0.996264)"/>
       <use xlink:href="#CMR17-30" transform="translate(72.787654 0) scale(0.996264)"/>
       <use xlink:href="#CMR17-30" transform="translate(118.478131 0) scale(0.996264)"/>
      </g>
     </g>
    </g>
    <g id="ytick_4">
     <g id="line2d_10">
      <g>
       <use xlink:href="#m308f9951ae" x="49.118577" y="39.484287" style="stroke: #000000; stroke-width: 0.8"/>
      </g>
     </g>
     <g id="text_4">
      <!-- $\mathdefault{0.05}$ -->
      <g transform="translate(24.407163 42.943536) scale(0.1 -0.1)">
       <use xlink:href="#CMR17-30" transform="scale(0.996264)"/>
       <use xlink:href="#CMMI12-3a" transform="translate(45.690477 0) scale(0.996264)"/>
       <use xlink:href="#CMR17-30" transform="translate(72.787654 0) scale(0.996264)"/>
       <use xlink:href="#CMR17-35" transform="translate(118.478131 0) scale(0.996264)"/>
      </g>
     </g>
    </g>
    <g id="ytick_5">
     <g id="line2d_11">
      <g>
       <use xlink:href="#m308f9951ae" x="49.118577" y="9.84996" style="stroke: #000000; stroke-width: 0.8"/>
      </g>
     </g>
     <g id="text_5">
      <!-- $\mathdefault{0.10}$ -->
      <g transform="translate(24.407163 13.309209) scale(0.1 -0.1)">
       <use xlink:href="#CMR17-30" transform="scale(0.996264)"/>
       <use xlink:href="#CMMI12-3a" transform="translate(45.690477 0) scale(0.996264)"/>
       <use xlink:href="#CMR17-31" transform="translate(72.787654 0) scale(0.996264)"/>
       <use xlink:href="#CMR17-30" transform="translate(118.478131 0) scale(0.996264)"/>
      </g>
     </g>
    </g>
    <g id="text_6">
     <!-- $\Delta \phi_4$ -->
     <g transform="translate(10.72124 87.451935) rotate(-90) scale(0.1 -0.1)">
      <defs>
       <path id="CMR17-1" d="M 2598 4403 
C 2547 4512 2522 4512 2470 4512 
C 2394 4512 2387 4499 2342 4409 
L 269 109 
C 262 96 237 38 237 32 
C 237 6 243 0 358 0 
L 4576 0 
C 4691 0 4698 6 4698 32 
C 4698 38 4672 96 4666 109 
L 2598 4403 
z
M 2310 4038 
L 4083 358 
L 531 358 
L 2310 4038 
z
" transform="scale(0.015625)"/>
       <path id="CMMI12-1e" d="M 2752 4390 
C 2752 4448 2707 4448 2688 4448 
C 2630 4448 2624 4435 2598 4326 
L 2253 2939 
C 2234 2856 2227 2849 2221 2843 
C 2214 2830 2170 2824 2157 2824 
C 1107 2734 301 1864 301 1057 
C 301 361 832 -64 1498 -64 
C 1446 -261 1402 -463 1350 -659 
C 1261 -995 1210 -1204 1210 -1229 
C 1210 -1241 1210 -1280 1274 -1280 
C 1293 -1280 1318 -1280 1331 -1254 
C 1344 -1241 1382 -1089 1408 -1008 
L 1645 -64 
C 2739 -64 3571 854 3571 1680 
C 3571 2343 3085 2816 2374 2816 
L 2752 4390 
z
M 2336 2701 
C 2758 2701 3181 2463 3181 1828 
C 3181 1097 2675 128 1677 50 
L 2336 2701 
z
M 1530 50 
C 1216 50 691 220 691 938 
C 691 1761 1274 2676 2195 2676 
L 1530 50 
z
" transform="scale(0.015625)"/>
       <path id="CMR17-34" d="M 2150 4122 
C 2150 4256 2144 4256 2029 4256 
L 128 1254 
L 128 1088 
L 1779 1088 
L 1779 457 
C 1779 224 1766 160 1318 160 
L 1197 160 
L 1197 0 
C 1402 0 1747 0 1965 0 
C 2182 0 2528 0 2733 0 
L 2733 160 
L 2611 160 
C 2163 160 2150 224 2150 457 
L 2150 1088 
L 2803 1088 
L 2803 1254 
L 2150 1254 
L 2150 4122 
z
M 1798 3703 
L 1798 1254 
L 256 1254 
L 1798 3703 
z
" transform="scale(0.015625)"/>
      </defs>
      <use xlink:href="#CMR17-1" transform="scale(0.996264)"/>
      <use xlink:href="#CMMI12-1e" transform="translate(76.91959 0) scale(0.996264)"/>
      <use xlink:href="#CMR17-34" transform="translate(134.65377 -14.943915) scale(0.697382)"/>
     </g>
    </g>
   </g>
   <g id="line2d_12">
    <path d="M 67.694994 69.118614 
L 71.410278 68.413347 
L 75.125561 66.820968 
L 78.840845 66.378014 
L 82.556128 67.757528 
L 86.271412 67.957594 
L 89.986695 67.421427 
L 93.701979 66.133259 
L 97.417262 63.978903 
L 101.132546 62.801521 
L 104.847829 63.702578 
L 108.563112 66.955868 
L 112.278396 68.929733 
L 115.993679 69.43076 
L 119.708963 68.324778 
L 123.424246 66.953775 
L 127.13953 67.125756 
L 130.854813 67.57928 
L 134.570097 67.068061 
L 138.28538 65.078637 
L 142.000664 64.835381 
L 145.715947 66.392671 
L 149.431231 69.444786 
L 153.146514 74.356101 
L 156.861798 76.245199 
L 160.577081 74.690187 
L 164.292365 72.115894 
L 168.007648 71.131665 
L 171.722932 70.472423 
L 175.438215 69.422463 
L 179.153499 68.144034 
L 182.868782 65.471069 
L 186.584066 65.128297 
L 190.299349 68.605342 
L 194.014633 71.096826 
L 197.729916 71.663936 
L 201.4452 70.848732 
L 205.160483 69.568789 
L 208.875767 71.060845 
L 212.59105 73.552855 
L 216.306334 80.090824 
L 220.021617 91.894204 
L 223.736901 101.696958 
L 227.452184 107.404686 
L 231.167467 111.38969 
L 234.882751 113.355517 
L 238.598034 112.951361 
L 242.313318 113.331091 
L 246.028601 114.526014 
L 249.743885 116.945108 
L 253.459168 122.53726 
L 257.174452 127.978946 
L 260.889735 131.328223 
L 264.605019 134.748293 
L 268.320302 137.904809 
L 272.035586 137.280953 
L 275.750869 136.222334 
L 279.466153 138.434791 
L 283.181436 140.956046 
L 286.89672 142.057239 
L 290.612003 143.26299 
L 294.327287 143.060757 
L 298.04257 140.953508 
L 301.757854 140.88757 
L 305.473137 142.892502 
L 309.188421 143.861585 
L 312.903704 143.700904 
L 316.618988 142.967416 
L 320.334271 141.281188 
L 324.049555 140.389388 
L 327.764838 141.71329 
L 331.480122 142.30304 
L 335.195405 142.187777 
L 338.910689 143.424236 
L 342.625972 142.649263 
L 346.341255 138.984021 
L 350.056539 136.546608 
L 353.771822 135.585156 
L 357.487106 136.429179 
L 361.202389 138.533904 
L 364.917673 140.444206 
L 368.632956 140.227827 
L 372.34824 138.226063 
L 376.063523 137.958978 
L 379.778807 136.592033 
L 383.49409 134.36551 
L 387.209374 135.472056 
L 390.924657 138.682753 
L 394.639941 141.862011 
L 398.355224 143.424256 
L 402.070508 144.842232 
L 405.785791 146.611401 
L 409.501075 146.844363 
L 413.216358 144.686397 
L 416.931642 141.341271 
L 420.646925 138.324531 
L 424.362209 135.152834 
L 428.077492 133.296555 
L 431.792776 134.496235 
L 435.508059 138.008476 
L 439.223343 140.739983 
" clip-path="url(#p8154eefee8)" style="fill: none; stroke-dasharray: 2.96,1.28; stroke-dashoffset: 0; stroke: #000000; stroke-width: 0.8"/>
   </g>
   <g id="line2d_13">
    <path d="M 67.694994 69.118614 
L 71.410278 67.498725 
L 75.125561 63.830861 
L 78.840845 61.5601 
L 82.556128 60.656854 
L 86.271412 60.071183 
L 89.986695 60.465323 
L 93.701979 61.894592 
L 97.417262 61.785037 
L 101.132546 60.81178 
L 104.847829 61.94177 
L 108.563112 62.638102 
L 112.278396 61.895934 
L 115.993679 62.186329 
L 119.708963 64.728913 
L 123.424246 69.211688 
L 127.13953 71.112744 
L 130.854813 71.361354 
L 134.570097 72.142613 
L 138.28538 72.993823 
L 142.000664 73.607947 
L 145.715947 71.408399 
L 149.431231 69.00469 
L 153.146514 68.014067 
L 156.861798 65.854432 
L 160.577081 65.579206 
L 164.292365 67.462729 
L 168.007648 69.653585 
L 171.722932 71.128818 
L 175.438215 71.395985 
L 179.153499 71.015446 
L 182.868782 68.883582 
L 186.584066 67.782059 
L 190.299349 68.943635 
L 194.014633 70.797501 
L 197.729916 73.318561 
L 201.4452 76.203871 
L 205.160483 75.416658 
L 208.875767 72.8209 
L 212.59105 70.603463 
L 216.306334 73.231377 
L 220.021617 84.339172 
L 223.736901 94.934748 
L 227.452184 100.615627 
L 231.167467 104.348643 
L 234.882751 107.895274 
L 238.598034 109.69075 
L 242.313318 110.772673 
L 246.028601 110.876976 
L 249.743885 110.151773 
L 253.459168 111.710611 
L 257.174452 112.672695 
L 260.889735 112.498752 
L 264.605019 111.08027 
L 268.320302 109.797923 
L 272.035586 108.773979 
L 275.750869 105.400296 
L 279.466153 102.150701 
L 283.181436 99.971332 
L 286.89672 99.931698 
L 290.612003 103.702876 
L 294.327287 109.101555 
L 298.04257 113.605266 
L 301.757854 115.882593 
L 305.473137 114.413413 
L 309.188421 109.352053 
L 312.903704 103.371989 
L 316.618988 98.737187 
L 320.334271 96.493561 
L 324.049555 97.997679 
L 327.764838 101.481613 
L 331.480122 105.297046 
L 335.195405 107.661142 
L 338.910689 107.17609 
L 342.625972 105.616031 
L 346.341255 105.935628 
L 350.056539 109.171764 
L 353.771822 110.709311 
L 357.487106 111.239829 
L 361.202389 112.043604 
L 364.917673 111.73049 
L 368.632956 112.32543 
L 372.34824 111.910837 
L 376.063523 109.316903 
L 379.778807 106.678778 
L 383.49409 105.781747 
L 387.209374 106.685463 
L 390.924657 107.045765 
L 394.639941 106.623293 
L 398.355224 107.165671 
L 402.070508 106.948052 
L 405.785791 106.78904 
L 409.501075 108.466541 
L 413.216358 108.395358 
L 416.931642 107.602321 
L 420.646925 107.828548 
L 424.362209 107.324364 
L 428.077492 107.743133 
L 431.792776 109.095616 
L 435.508059 110.032698 
L 439.223343 111.493179 
" clip-path="url(#p8154eefee8)" style="fill: none; stroke: #000000; stroke-width: 0.8; stroke-linecap: square"/>
   </g>
   <g id="line2d_14">
    <path d="M 49.118577 9.84996 
L 457.79976 9.84996 
" clip-path="url(#p8154eefee8)" style="fill: none; stroke: #ff0000; stroke-linecap: square"/>
   </g>
   <g id="line2d_15">
    <path d="M 49.118577 128.387269 
L 457.79976 128.387269 
" clip-path="url(#p8154eefee8)" style="fill: none; stroke: #ff0000; stroke-linecap: square"/>
   </g>
   <g id="patch_3">
    <path d="M 49.118577 153.694083 
L 49.118577 3.00024 
" style="fill: none; stroke: #000000; stroke-width: 0.8; stroke-linejoin: miter; stroke-linecap: square"/>
   </g>
   <g id="patch_4">
    <path d="M 457.79976 153.694083 
L 457.79976 3.00024 
" style="fill: none; stroke: #000000; stroke-width: 0.8; stroke-linejoin: miter; stroke-linecap: square"/>
   </g>
   <g id="patch_5">
    <path d="M 49.118577 153.694083 
L 457.79976 153.694083 
" style="fill: none; stroke: #000000; stroke-width: 0.8; stroke-linejoin: miter; stroke-linecap: square"/>
   </g>
   <g id="patch_6">
    <path d="M 49.118577 3.00024 
L 457.79976 3.00024 
" style="fill: none; stroke: #000000; stroke-width: 0.8; stroke-linejoin: miter; stroke-linecap: square"/>
   </g>
  </g>
  <g id="axes_2">
   <g id="patch_7">
    <path d="M 49.118577 313.888407 
L 457.79976 313.888407 
L 457.79976 163.194563 
L 49.118577 163.194563 
z
" style="fill: #ffffff"/>
   </g>
   <g id="matplotlib.axis_3">
    <g id="xtick_7">
     <g id="line2d_16">
      <g>
       <use xlink:href="#m946e6bba5b" x="67.694994" y="313.888407" style="stroke: #000000; stroke-width: 0.8"/>
      </g>
     </g>
     <g id="text_7">
      <!-- $\mathdefault{0}$ -->
      <g transform="translate(65.204327 327.806905) scale(0.1 -0.1)">
       <use xlink:href="#CMR17-30" transform="scale(0.996264)"/>
      </g>
     </g>
    </g>
    <g id="xtick_8">
     <g id="line2d_17">
      <g>
       <use xlink:href="#m946e6bba5b" x="142.000664" y="313.888407" style="stroke: #000000; stroke-width: 0.8"/>
      </g>
     </g>
     <g id="text_8">
      <!-- $\mathdefault{20}$ -->
      <g transform="translate(137.019329 327.806905) scale(0.1 -0.1)">
       <defs>
        <path id="CMR17-32" d="M 2669 989 
L 2554 989 
C 2490 536 2438 459 2413 420 
C 2381 369 1920 369 1830 369 
L 602 369 
C 832 619 1280 1072 1824 1597 
C 2214 1967 2669 2402 2669 3035 
C 2669 3790 2067 4224 1395 4224 
C 691 4224 262 3604 262 3030 
C 262 2780 448 2748 525 2748 
C 589 2748 781 2787 781 3010 
C 781 3207 614 3264 525 3264 
C 486 3264 448 3258 422 3245 
C 544 3790 915 4058 1306 4058 
C 1862 4058 2227 3617 2227 3035 
C 2227 2479 1901 2000 1536 1584 
L 262 146 
L 262 0 
L 2515 0 
L 2669 989 
z
" transform="scale(0.015625)"/>
       </defs>
       <use xlink:href="#CMR17-32" transform="scale(0.996264)"/>
       <use xlink:href="#CMR17-30" transform="translate(45.690477 0) scale(0.996264)"/>
      </g>
     </g>
    </g>
    <g id="xtick_9">
     <g id="line2d_18">
      <g>
       <use xlink:href="#m946e6bba5b" x="216.306334" y="313.888407" style="stroke: #000000; stroke-width: 0.8"/>
      </g>
     </g>
     <g id="text_9">
      <!-- $\mathdefault{40}$ -->
      <g transform="translate(211.324998 327.806905) scale(0.1 -0.1)">
       <use xlink:href="#CMR17-34" transform="scale(0.996264)"/>
       <use xlink:href="#CMR17-30" transform="translate(45.690477 0) scale(0.996264)"/>
      </g>
     </g>
    </g>
    <g id="xtick_10">
     <g id="line2d_19">
      <g>
       <use xlink:href="#m946e6bba5b" x="290.612003" y="313.888407" style="stroke: #000000; stroke-width: 0.8"/>
      </g>
     </g>
     <g id="text_10">
      <!-- $\mathdefault{60}$ -->
      <g transform="translate(285.630668 327.806905) scale(0.1 -0.1)">
       <defs>
        <path id="CMR17-36" d="M 678 2176 
C 678 3690 1395 4032 1811 4032 
C 1946 4032 2272 4009 2400 3776 
C 2298 3776 2106 3776 2106 3553 
C 2106 3381 2246 3323 2336 3323 
C 2394 3323 2566 3348 2566 3560 
C 2566 3954 2246 4179 1805 4179 
C 1043 4179 243 3390 243 1984 
C 243 253 966 -128 1478 -128 
C 2099 -128 2688 427 2688 1283 
C 2688 2081 2170 2662 1517 2662 
C 1126 2662 838 2407 678 1960 
L 678 2176 
z
M 1478 25 
C 691 25 691 1200 691 1436 
C 691 1896 909 2560 1504 2560 
C 1613 2560 1926 2560 2138 2120 
C 2253 1870 2253 1609 2253 1289 
C 2253 944 2253 690 2118 434 
C 1978 171 1773 25 1478 25 
z
" transform="scale(0.015625)"/>
       </defs>
       <use xlink:href="#CMR17-36" transform="scale(0.996264)"/>
       <use xlink:href="#CMR17-30" transform="translate(45.690477 0) scale(0.996264)"/>
      </g>
     </g>
    </g>
    <g id="xtick_11">
     <g id="line2d_20">
      <g>
       <use xlink:href="#m946e6bba5b" x="364.917673" y="313.888407" style="stroke: #000000; stroke-width: 0.8"/>
      </g>
     </g>
     <g id="text_11">
      <!-- $\mathdefault{80}$ -->
      <g transform="translate(359.936338 327.806905) scale(0.1 -0.1)">
       <defs>
        <path id="CMR17-38" d="M 1741 2264 
C 2144 2467 2554 2773 2554 3263 
C 2554 3841 1990 4179 1472 4179 
C 890 4179 378 3759 378 3180 
C 378 3021 416 2747 666 2505 
C 730 2442 998 2251 1171 2130 
C 883 1983 211 1634 211 934 
C 211 279 838 -128 1459 -128 
C 2144 -128 2720 362 2720 1010 
C 2720 1590 2330 1857 2074 2029 
L 1741 2264 
z
M 902 2822 
C 851 2854 595 3051 595 3351 
C 595 3739 998 4032 1459 4032 
C 1965 4032 2336 3676 2336 3262 
C 2336 2669 1670 2331 1638 2331 
C 1632 2331 1626 2331 1574 2370 
L 902 2822 
z
M 2080 1519 
C 2176 1449 2483 1240 2483 851 
C 2483 381 2010 25 1472 25 
C 890 25 448 438 448 940 
C 448 1443 838 1862 1280 2060 
L 2080 1519 
z
" transform="scale(0.015625)"/>
       </defs>
       <use xlink:href="#CMR17-38" transform="scale(0.996264)"/>
       <use xlink:href="#CMR17-30" transform="translate(45.690477 0) scale(0.996264)"/>
      </g>
     </g>
    </g>
    <g id="xtick_12">
     <g id="line2d_21">
      <g>
       <use xlink:href="#m946e6bba5b" x="439.223343" y="313.888407" style="stroke: #000000; stroke-width: 0.8"/>
      </g>
     </g>
     <g id="text_12">
      <!-- $\mathdefault{100}$ -->
      <g transform="translate(431.75134 327.806905) scale(0.1 -0.1)">
       <use xlink:href="#CMR17-31" transform="scale(0.996264)"/>
       <use xlink:href="#CMR17-30" transform="translate(45.690477 0) scale(0.996264)"/>
       <use xlink:href="#CMR17-30" transform="translate(91.380954 0) scale(0.996264)"/>
      </g>
     </g>
    </g>
    <g id="text_13">
     <!-- $k$ -->
     <g transform="translate(250.865874 340.662582) scale(0.1 -0.1)">
      <defs>
       <path id="CMMI12-6b" d="M 1798 4257 
C 1805 4283 1818 4321 1818 4352 
C 1818 4416 1754 4416 1741 4416 
C 1734 4416 1504 4393 1389 4377 
C 1280 4377 1184 4358 1069 4358 
C 915 4345 870 4339 870 4224 
C 870 4160 934 4160 998 4160 
C 1325 4160 1325 4103 1325 4040 
C 1325 4015 1325 4002 1293 3888 
L 378 248 
C 352 152 352 140 352 101 
C 352 -38 461 -64 525 -64 
C 704 -64 742 77 794 275 
L 1094 1469 
C 1555 1418 1830 1226 1830 920 
C 1830 881 1830 856 1811 760 
C 1786 664 1786 588 1786 556 
C 1786 185 2029 -64 2355 -64 
C 2650 -64 2803 204 2854 294 
C 2989 530 3072 888 3072 913 
C 3072 945 3046 971 3008 971 
C 2950 971 2944 945 2918 843 
C 2829 511 2694 64 2368 64 
C 2240 64 2157 128 2157 370 
C 2157 492 2182 632 2208 728 
C 2234 843 2234 849 2234 926 
C 2234 1303 1894 1514 1306 1590 
C 1536 1731 1766 1980 1856 2076 
C 2221 2484 2470 2689 2765 2689 
C 2912 2689 2950 2650 2995 2612 
C 2758 2586 2669 2420 2669 2293 
C 2669 2139 2790 2088 2880 2088 
C 3053 2088 3206 2235 3206 2440 
C 3206 2625 3059 2816 2771 2816 
C 2419 2816 2131 2567 1677 2056 
C 1613 1980 1376 1737 1139 1648 
L 1798 4257 
z
" transform="scale(0.015625)"/>
      </defs>
      <use xlink:href="#CMMI12-6b" transform="scale(0.996264)"/>
     </g>
    </g>
   </g>
   <g id="matplotlib.axis_4">
    <g id="ytick_6">
     <g id="line2d_22">
      <g>
       <use xlink:href="#m308f9951ae" x="49.118577" y="310.190601" style="stroke: #000000; stroke-width: 0.8"/>
      </g>
     </g>
     <g id="text_14">
      <!-- $\mathdefault{−0.05}$ -->
      <g transform="translate(16.658419 313.64985) scale(0.1 -0.1)">
       <use xlink:href="#CMSY10-0" transform="scale(0.996264)"/>
       <use xlink:href="#CMR17-30" transform="translate(77.487468 0) scale(0.996264)"/>
       <use xlink:href="#CMMI12-3a" transform="translate(123.177945 0) scale(0.996264)"/>
       <use xlink:href="#CMR17-30" transform="translate(150.275122 0) scale(0.996264)"/>
       <use xlink:href="#CMR17-35" transform="translate(195.965599 0) scale(0.996264)"/>
      </g>
     </g>
    </g>
    <g id="ytick_7">
     <g id="line2d_23">
      <g>
       <use xlink:href="#m308f9951ae" x="49.118577" y="285.492368" style="stroke: #000000; stroke-width: 0.8"/>
      </g>
     </g>
     <g id="text_15">
      <!-- $\mathdefault{0.00}$ -->
      <g transform="translate(24.407163 288.951617) scale(0.1 -0.1)">
       <use xlink:href="#CMR17-30" transform="scale(0.996264)"/>
       <use xlink:href="#CMMI12-3a" transform="translate(45.690477 0) scale(0.996264)"/>
       <use xlink:href="#CMR17-30" transform="translate(72.787654 0) scale(0.996264)"/>
       <use xlink:href="#CMR17-30" transform="translate(118.478131 0) scale(0.996264)"/>
      </g>
     </g>
    </g>
    <g id="ytick_8">
     <g id="line2d_24">
      <g>
       <use xlink:href="#m308f9951ae" x="49.118577" y="260.794134" style="stroke: #000000; stroke-width: 0.8"/>
      </g>
     </g>
     <g id="text_16">
      <!-- $\mathdefault{0.05}$ -->
      <g transform="translate(24.407163 264.253384) scale(0.1 -0.1)">
       <use xlink:href="#CMR17-30" transform="scale(0.996264)"/>
       <use xlink:href="#CMMI12-3a" transform="translate(45.690477 0) scale(0.996264)"/>
       <use xlink:href="#CMR17-30" transform="translate(72.787654 0) scale(0.996264)"/>
       <use xlink:href="#CMR17-35" transform="translate(118.478131 0) scale(0.996264)"/>
      </g>
     </g>
    </g>
    <g id="ytick_9">
     <g id="line2d_25">
      <g>
       <use xlink:href="#m308f9951ae" x="49.118577" y="236.095901" style="stroke: #000000; stroke-width: 0.8"/>
      </g>
     </g>
     <g id="text_17">
      <!-- $\mathdefault{0.10}$ -->
      <g transform="translate(24.407163 239.55515) scale(0.1 -0.1)">
       <use xlink:href="#CMR17-30" transform="scale(0.996264)"/>
       <use xlink:href="#CMMI12-3a" transform="translate(45.690477 0) scale(0.996264)"/>
       <use xlink:href="#CMR17-31" transform="translate(72.787654 0) scale(0.996264)"/>
       <use xlink:href="#CMR17-30" transform="translate(118.478131 0) scale(0.996264)"/>
      </g>
     </g>
    </g>
    <g id="ytick_10">
     <g id="line2d_26">
      <g>
       <use xlink:href="#m308f9951ae" x="49.118577" y="211.397668" style="stroke: #000000; stroke-width: 0.8"/>
      </g>
     </g>
     <g id="text_18">
      <!-- $\mathdefault{0.15}$ -->
      <g transform="translate(24.407163 214.856917) scale(0.1 -0.1)">
       <use xlink:href="#CMR17-30" transform="scale(0.996264)"/>
       <use xlink:href="#CMMI12-3a" transform="translate(45.690477 0) scale(0.996264)"/>
       <use xlink:href="#CMR17-31" transform="translate(72.787654 0) scale(0.996264)"/>
       <use xlink:href="#CMR17-35" transform="translate(118.478131 0) scale(0.996264)"/>
      </g>
     </g>
    </g>
    <g id="ytick_11">
     <g id="line2d_27">
      <g>
       <use xlink:href="#m308f9951ae" x="49.118577" y="186.699434" style="stroke: #000000; stroke-width: 0.8"/>
      </g>
     </g>
     <g id="text_19">
      <!-- $\mathdefault{0.20}$ -->
      <g transform="translate(24.407163 190.158683) scale(0.1 -0.1)">
       <use xlink:href="#CMR17-30" transform="scale(0.996264)"/>
       <use xlink:href="#CMMI12-3a" transform="translate(45.690477 0) scale(0.996264)"/>
       <use xlink:href="#CMR17-32" transform="translate(72.787654 0) scale(0.996264)"/>
       <use xlink:href="#CMR17-30" transform="translate(118.478131 0) scale(0.996264)"/>
      </g>
     </g>
    </g>
    <g id="text_20">
     <!-- $\Delta P_{tie,3,4}$ -->
     <g transform="translate(9.808024 257.032143) rotate(-90) scale(0.1 -0.1)">
      <defs>
       <path id="CMMI12-50" d="M 1894 2023 
L 2970 2023 
C 3853 2023 4736 2673 4736 3401 
C 4736 3898 4314 4352 3507 4352 
L 1530 4352 
C 1408 4352 1350 4352 1350 4231 
C 1350 4167 1408 4167 1504 4167 
C 1894 4167 1894 4116 1894 4046 
C 1894 4034 1894 3995 1869 3899 
L 1005 472 
C 947 249 934 185 486 185 
C 365 185 301 185 301 70 
C 301 0 358 0 397 0 
C 518 0 646 0 768 0 
L 1517 0 
C 1638 0 1773 0 1894 0 
C 1946 0 2016 0 2016 121 
C 2016 185 1958 185 1862 185 
C 1478 185 1472 230 1472 293 
C 1472 325 1478 369 1485 401 
L 1894 2023 
z
M 2355 3930 
C 2413 4167 2438 4167 2688 4167 
L 3322 4167 
C 3802 4167 4198 4013 4198 3535 
C 4198 3369 4115 2827 3821 2534 
C 3712 2419 3405 2176 2822 2176 
L 1920 2176 
L 2355 3930 
z
" transform="scale(0.015625)"/>
       <path id="CMMI12-74" d="M 1286 2566 
L 1875 2566 
C 1997 2566 2061 2566 2061 2681 
C 2061 2752 2022 2752 1894 2752 
L 1331 2752 
L 1568 3692 
C 1594 3781 1594 3794 1594 3840 
C 1594 3943 1510 4000 1427 4000 
C 1376 4000 1229 3981 1178 3775 
L 928 2752 
L 326 2752 
C 198 2752 141 2752 141 2630 
C 141 2566 186 2566 307 2566 
L 877 2566 
L 454 881 
C 403 658 384 594 384 511 
C 384 211 595 -64 954 -64 
C 1600 -64 1946 868 1946 912 
C 1946 951 1920 970 1882 970 
C 1869 970 1843 970 1830 944 
C 1824 938 1818 931 1773 829 
C 1638 511 1344 64 973 64 
C 781 64 768 224 768 364 
C 768 370 768 492 787 568 
L 1286 2566 
z
" transform="scale(0.015625)"/>
       <path id="CMMI12-69" d="M 1811 913 
C 1811 945 1786 971 1747 971 
C 1690 971 1683 952 1651 843 
C 1485 262 1222 64 1011 64 
C 934 64 845 83 845 275 
C 845 447 922 639 992 830 
L 1440 2018 
C 1459 2069 1504 2184 1504 2305 
C 1504 2574 1312 2816 998 2816 
C 410 2816 173 1890 173 1839 
C 173 1814 198 1782 243 1782 
C 301 1782 307 1807 333 1896 
C 486 2428 730 2682 979 2682 
C 1037 2682 1146 2682 1146 2478 
C 1146 2312 1062 2101 1011 1961 
L 563 773 
C 525 671 486 568 486 453 
C 486 166 685 -64 992 -64 
C 1581 -64 1811 869 1811 913 
z
M 1760 4013 
C 1760 4109 1683 4224 1542 4224 
C 1395 4224 1229 4083 1229 3917 
C 1229 3758 1363 3707 1440 3707 
C 1613 3707 1760 3873 1760 4013 
z
" transform="scale(0.015625)"/>
       <path id="CMMI12-65" d="M 1146 1479 
C 1318 1479 1754 1479 2061 1595 
C 2547 1783 2592 2158 2592 2274 
C 2592 2558 2349 2816 1926 2816 
C 1254 2816 288 2210 288 1073 
C 288 402 672 -64 1254 -64 
C 2125 -64 2675 609 2675 692 
C 2675 730 2637 762 2611 762 
C 2592 762 2586 756 2528 699 
C 2118 159 1510 64 1267 64 
C 902 64 710 350 710 822 
C 710 911 710 1071 806 1479 
L 1146 1479 
z
M 838 1600 
C 1114 2592 1722 2689 1926 2689 
C 2208 2689 2400 2522 2400 2277 
C 2400 1600 1376 1600 1107 1600 
L 838 1600 
z
" transform="scale(0.015625)"/>
       <path id="CMMI12-3b" d="M 1248 -31 
C 1248 343 1126 619 864 619 
C 659 619 557 453 557 313 
C 557 172 653 0 870 0 
C 954 0 1024 26 1082 83 
C 1094 96 1101 96 1107 96 
C 1120 96 1120 5 1120 -27 
C 1120 -240 1082 -659 710 -1080 
C 640 -1157 640 -1170 640 -1183 
C 640 -1216 672 -1248 704 -1248 
C 755 -1248 1248 -771 1248 -31 
z
" transform="scale(0.015625)"/>
       <path id="CMR17-33" d="M 1414 2157 
C 1984 2157 2234 1662 2234 1090 
C 2234 320 1824 25 1453 25 
C 1114 25 563 194 390 693 
C 422 680 454 680 486 680 
C 640 680 755 782 755 948 
C 755 1133 614 1216 486 1216 
C 378 1216 211 1165 211 926 
C 211 335 787 -128 1466 -128 
C 2176 -128 2720 430 2720 1085 
C 2720 1707 2208 2157 1600 2227 
C 2086 2328 2554 2756 2554 3329 
C 2554 3820 2048 4179 1472 4179 
C 890 4179 378 3829 378 3329 
C 378 3110 544 3072 627 3072 
C 762 3072 877 3155 877 3321 
C 877 3486 762 3569 627 3569 
C 602 3569 570 3569 544 3557 
C 730 3959 1235 4032 1459 4032 
C 1683 4032 2106 3925 2106 3320 
C 2106 3143 2080 2828 1862 2550 
C 1670 2304 1453 2304 1242 2284 
C 1210 2284 1062 2269 1037 2269 
C 992 2263 966 2257 966 2208 
C 966 2163 973 2157 1101 2157 
L 1414 2157 
z
" transform="scale(0.015625)"/>
      </defs>
      <use xlink:href="#CMR17-1" transform="scale(0.996264)"/>
      <use xlink:href="#CMMI12-50" transform="translate(76.91959 0) scale(0.996264)"/>
      <use xlink:href="#CMMI12-74" transform="translate(139.796822 -14.943915) scale(0.697382)"/>
      <use xlink:href="#CMMI12-69" transform="translate(164.455132 -14.943915) scale(0.697382)"/>
      <use xlink:href="#CMMI12-65" transform="translate(187.750039 -14.943915) scale(0.697382)"/>
      <use xlink:href="#CMMI12-3b" transform="translate(219.398295 -14.943915) scale(0.697382)"/>
      <use xlink:href="#CMR17-33" transform="translate(238.366228 -14.943915) scale(0.697382)"/>
      <use xlink:href="#CMMI12-3b" transform="translate(270.34941 -14.943915) scale(0.697382)"/>
      <use xlink:href="#CMR17-34" transform="translate(289.317343 -14.943915) scale(0.697382)"/>
     </g>
    </g>
   </g>
   <g id="line2d_28">
    <path d="M 67.694994 285.492368 
L 71.410278 283.952568 
L 75.125561 282.177861 
L 78.840845 281.261561 
L 82.556128 277.984725 
L 86.271412 276.102608 
L 89.986695 277.330727 
L 93.701979 280.061252 
L 97.417262 282.894838 
L 101.132546 286.931691 
L 104.847829 287.194766 
L 108.563112 281.043759 
L 112.278396 281.470143 
L 115.993679 283.452355 
L 119.708963 284.640532 
L 123.424246 287.516291 
L 127.13953 288.591805 
L 130.854813 288.980568 
L 134.570097 291.659768 
L 138.28538 294.850788 
L 142.000664 296.941811 
L 145.715947 301.015182 
L 149.431231 299.272762 
L 153.146514 285.270535 
L 156.861798 275.032992 
L 160.577081 272.388178 
L 164.292365 276.553366 
L 168.007648 279.244467 
L 171.722932 277.702895 
L 175.438215 276.358349 
L 179.153499 279.29288 
L 182.868782 285.145813 
L 186.584066 285.622642 
L 190.299349 281.681742 
L 194.014633 281.374419 
L 197.729916 285.310636 
L 201.4452 286.192551 
L 205.160483 282.540865 
L 208.875767 273.969486 
L 212.59105 266.206321 
L 216.306334 252.611116 
L 220.021617 228.451424 
L 223.736901 208.763268 
L 227.452184 205.317076 
L 231.167467 211.141411 
L 234.882751 217.462994 
L 238.598034 224.723944 
L 242.313318 227.594945 
L 246.028601 224.712915 
L 249.743885 222.881288 
L 253.459168 218.719691 
L 257.174452 215.203957 
L 260.889735 213.981941 
L 264.605019 208.651981 
L 268.320302 200.259745 
L 272.035586 200.479312 
L 275.750869 201.945504 
L 279.466153 197.226403 
L 283.181436 194.055055 
L 286.89672 193.168789 
L 290.612003 190.476309 
L 294.327287 189.277368 
L 298.04257 188.88015 
L 301.757854 182.410079 
L 305.473137 176.956951 
L 309.188421 177.671602 
L 312.903704 182.125614 
L 316.618988 188.252742 
L 320.334271 192.304577 
L 324.049555 194.519267 
L 327.764838 191.976544 
L 331.480122 189.257138 
L 335.195405 188.80875 
L 338.910689 186.255629 
L 342.625972 186.437885 
L 346.341255 193.900908 
L 350.056539 200.774187 
L 353.771822 201.435001 
L 357.487106 199.601769 
L 361.202389 195.501352 
L 364.917673 188.97837 
L 368.632956 186.08704 
L 372.34824 186.756511 
L 376.063523 185.517119 
L 379.778807 191.646672 
L 383.49409 204.04516 
L 387.209374 209.775255 
L 390.924657 208.24496 
L 394.639941 203.447788 
L 398.355224 198.299129 
L 402.070508 192.349257 
L 405.785791 188.175767 
L 409.501075 189.291947 
L 413.216358 191.978581 
L 416.931642 190.644176 
L 420.646925 190.367989 
L 424.362209 197.696251 
L 428.077492 205.519746 
L 431.792776 204.286836 
L 435.508059 197.798893 
L 439.223343 194.425351 
" clip-path="url(#pf09573f951)" style="fill: none; stroke-dasharray: 2.96,1.28; stroke-dashoffset: 0; stroke: #000000; stroke-width: 0.8"/>
   </g>
   <g id="line2d_29">
    <path d="M 67.694994 285.492368 
L 71.410278 287.528667 
L 75.125561 291.496185 
L 78.840845 295.054451 
L 82.556128 297.651986 
L 86.271412 298.94273 
L 89.986695 299.04961 
L 93.701979 297.30458 
L 97.417262 295.892527 
L 101.132546 293.731441 
L 104.847829 288.115363 
L 108.563112 284.873275 
L 112.278396 287.362353 
L 115.993679 288.428059 
L 119.708963 285.607334 
L 123.424246 279.101194 
L 127.13953 276.657292 
L 130.854813 277.037884 
L 134.570097 277.738499 
L 138.28538 279.051805 
L 142.000664 284.260837 
L 145.715947 298.066712 
L 149.431231 307.038686 
L 153.146514 303.384931 
L 156.861798 299.876775 
L 160.577081 297.607984 
L 164.292365 289.985405 
L 168.007648 282.908519 
L 171.722932 280.386345 
L 175.438215 280.108897 
L 179.153499 279.950797 
L 182.868782 284.469582 
L 186.584066 288.404474 
L 190.299349 287.610917 
L 194.014633 285.991667 
L 197.729916 281.785553 
L 201.4452 275.161992 
L 205.160483 275.157209 
L 208.875767 277.867959 
L 212.59105 280.105089 
L 216.306334 271.35837 
L 220.021617 244.789705 
L 223.736901 222.604884 
L 227.452184 215.66937 
L 231.167467 211.8474 
L 234.882751 203.670242 
L 238.598034 196.745357 
L 242.313318 188.903722 
L 246.028601 182.354998 
L 249.743885 181.725008 
L 253.459168 178.903972 
L 257.174452 177.364992 
L 260.889735 178.334438 
L 264.605019 180.124783 
L 268.320302 180.955464 
L 272.035586 182.024447 
L 275.750869 187.400197 
L 279.466153 196.986245 
L 283.181436 207.288173 
L 286.89672 212.673587 
L 290.612003 209.456307 
L 294.327287 197.68367 
L 298.04257 184.465991 
L 301.757854 173.578546 
L 305.473137 170.044283 
L 309.188421 176.49322 
L 312.903704 188.812905 
L 316.618988 203.405484 
L 320.334271 211.410014 
L 324.049555 209.440475 
L 327.764838 203.431732 
L 331.480122 196.21011 
L 335.195405 190.872331 
L 338.910689 188.822725 
L 342.625972 189.939134 
L 346.341255 194.099519 
L 350.056539 196.842029 
L 353.771822 196.712743 
L 357.487106 192.503465 
L 361.202389 185.514732 
L 364.917673 177.425083 
L 368.632956 172.706084 
L 372.34824 177.553724 
L 376.063523 185.431264 
L 379.778807 193.289465 
L 383.49409 197.847609 
L 387.209374 194.984962 
L 390.924657 191.173697 
L 394.639941 187.616427 
L 398.355224 183.018981 
L 402.070508 186.723854 
L 405.785791 193.179461 
L 409.501075 193.16468 
L 413.216358 194.837451 
L 416.931642 197.788275 
L 420.646925 195.146867 
L 424.362209 189.43676 
L 428.077492 184.583806 
L 431.792776 184.778117 
L 435.508059 189.050169 
L 439.223343 189.882777 
" clip-path="url(#pf09573f951)" style="fill: none; stroke: #000000; stroke-width: 0.8; stroke-linecap: square"/>
   </g>
   <g id="patch_8">
    <path d="M 49.118577 313.888407 
L 49.118577 163.194563 
" style="fill: none; stroke: #000000; stroke-width: 0.8; stroke-linejoin: miter; stroke-linecap: square"/>
   </g>
   <g id="patch_9">
    <path d="M 457.79976 313.888407 
L 457.79976 163.194563 
" style="fill: none; stroke: #000000; stroke-width: 0.8; stroke-linejoin: miter; stroke-linecap: square"/>
   </g>
   <g id="patch_10">
    <path d="M 49.118577 313.888407 
L 457.79976 313.888407 
" style="fill: none; stroke: #000000; stroke-width: 0.8; stroke-linejoin: miter; stroke-linecap: square"/>
   </g>
   <g id="patch_11">
    <path d="M 49.118577 163.194563 
L 457.79976 163.194563 
" style="fill: none; stroke: #000000; stroke-width: 0.8; stroke-linejoin: miter; stroke-linecap: square"/>
   </g>
  </g>
 </g>
 <defs>
  <clipPath id="p8154eefee8">
   <rect x="49.118577" y="3.00024" width="408.681183" height="150.693843"/>
  </clipPath>
  <clipPath id="pf09573f951">
   <rect x="49.118577" y="163.194563" width="408.681183" height="150.693843"/>
  </clipPath>
 </defs>
</svg>
